<!DOCTYPE svg PUBLIC "-//W3C//DTD SVG 1.1//EN" "http://www.w3.org/Graphics/SVG/1.1/DTD/svg11.dtd">
<!-- Uploaded to: SVG Repo, www.svgrepo.com, Transformed by: SVG Repo Mixer Tools -->
<svg width="800px" height="800px" viewBox="0 -0.5 24 24" id="meteor-icon-kit__solid-star" fill="none" xmlns="http://www.w3.org/2000/svg" stroke="#000000" stroke-width="0.4800000000000001">
<g id="SVGRepo_bgCarrier" stroke-width="0"/>
<g id="SVGRepo_tracerCarrier" stroke-linecap="round" stroke-linejoin="round" stroke="#CCCCCC" stroke-width="0.096"/>
<g id="SVGRepo_iconCarrier">
<path fill-rule="evenodd" clip-rule="evenodd" d="M6.7998 22.3168C5.78902 22.7622 4.60854 22.3039 4.16313 21.2931C4.02364 20.9766 3.96864 20.6293 4.00348 20.2852L4.57592 14.6314L0.789612 10.3939C0.0536467 9.5702 0.124744 8.3059 0.948413 7.56994C1.20635 7.33946 1.51965 7.17983 1.85771 7.10662L7.41165 5.90394L10.2717 0.99348C10.8277 0.03901 12.0521 -0.284071 13.0066 0.27186C13.3054 0.44595 13.5541 0.69459 13.7282 0.99348L16.5883 5.90394L22.1422 7.10662C23.2217 7.3404 23.9074 8.40505 23.6736 9.4846C23.6004 9.8227 23.4408 10.136 23.2103 10.3939L19.424 14.6314L19.9964 20.2852C20.1077 21.3841 19.307 22.3652 18.2081 22.4765C17.8639 22.5113 17.5166 22.4563 17.2001 22.3168L12 20.0253L6.7998 22.3168z" fill="#ffffff"/>
</g>
</svg>