<svg width="241" height="195" viewBox="0 0 241 195" fill="none" xmlns="http://www.w3.org/2000/svg">
<path d="M122.538 194.194C181.803 194.194 229.847 184.033 229.847 171.499C229.847 158.965 181.803 148.804 122.538 148.804C63.2723 148.804 15.2282 158.965 15.2282 171.499C15.2282 184.033 63.2723 194.194 122.538 194.194Z" fill="#92A4E3"/>
<path opacity="0.3" d="M122.538 194.194C181.803 194.194 229.847 184.033 229.847 171.499C229.847 158.965 181.803 148.804 122.538 148.804C63.2723 148.804 15.2282 158.965 15.2282 171.499C15.2282 184.033 63.2723 194.194 122.538 194.194Z" fill="white"/>
<path d="M0.126461 19.4388C-0.00427023 18.966 -0.0340574 18.471 0.0390328 17.986C0.112123 17.5009 0.286455 17.0366 0.550703 16.6234C0.81495 16.2101 1.1632 15.857 1.57282 15.5871C1.98244 15.3172 2.44426 15.1365 2.92827 15.0568C5.85897 14.6589 9.4565 18.5927 10.5996 20.9742C10.6949 21.1816 11.8661 24.5774 11.81 24.5774C11.754 24.5774 6.61546 24.695 4.52531 23.7648C2.69292 22.9747 0.613977 21.4674 0.126461 19.4388ZM75.3944 10.3946C74.9629 12.4343 72.9232 13.9977 71.1412 14.8383C69.3593 15.6788 65.1285 15.8245 64.0919 15.8413C63.5315 16.5081 62.9319 17.231 62.2875 18.0379C61.1668 19.4725 59.9228 21.1031 58.69 22.9635C58.3593 23.4622 58.0231 24.0058 57.6869 24.5325C58.4378 23.7648 59.4745 22.7282 59.5865 22.6385C61.6543 20.9966 66.6079 19.0298 69.0679 20.666C69.4693 20.9484 69.8068 21.3121 70.0584 21.7335C70.31 22.1549 70.4701 22.6245 70.5283 23.1118C70.5864 23.5992 70.5413 24.0933 70.3959 24.562C70.2505 25.0308 70.008 25.4637 69.6843 25.8326C68.3562 27.4464 65.829 27.8947 63.8565 27.8163C61.884 27.7378 57.9447 25.8606 57.1041 25.4403C56.3813 26.6115 55.664 27.8331 54.9916 29.1499C53.7396 31.5237 52.7025 34.0048 51.8928 36.5635L52.0441 36.6364C52.6437 35.8463 53.9493 34.2156 54.0726 34.0979C55.9442 32.2319 60.6568 29.7383 63.2849 31.0888C63.71 31.327 64.0807 31.6513 64.3734 32.041C64.666 32.4307 64.874 32.8771 64.9843 33.3518C65.0945 33.8264 65.1045 34.3189 65.0135 34.7976C64.9226 35.2764 64.7327 35.7309 64.4561 36.132C63.3354 37.886 60.853 38.6088 58.8861 38.7433C56.6446 38.9058 51.932 37.1351 51.7527 37.0622C51.0254 39.6254 50.4639 42.2328 50.0716 44.8681C49.769 46.8182 49.5392 48.7906 49.3263 50.8023C49.7354 50.242 51.4501 48.0958 51.5678 47.9557C53.4394 46.0953 58.152 43.5961 60.7745 44.9522C61.2048 45.189 61.5804 45.5138 61.8768 45.9054C62.1732 46.297 62.3837 46.7467 62.4948 47.2252C62.6058 47.7036 62.6148 48.2001 62.5211 48.6822C62.4275 49.1643 62.2333 49.6213 61.9513 50.0234C60.8306 51.7718 58.3481 52.4946 56.3813 52.6291C54.1678 52.786 49.6569 51.1105 49.2871 50.948C49.1918 51.8558 49.0966 52.758 49.0069 53.6714C48.7155 56.6357 48.4465 59.6168 48.0767 62.5475C47.9478 63.5618 47.7909 64.5592 47.634 65.5567C48.2728 64.7273 49.4608 63.2424 49.5785 63.1247C51.4501 61.2643 56.1627 58.7651 58.7908 60.1212C59.2166 60.3588 59.5879 60.6828 59.881 61.0724C60.1741 61.462 60.3825 61.9086 60.4928 62.3835C60.6031 62.8585 60.6128 63.3512 60.5214 63.8301C60.43 64.309 60.2395 64.7635 59.962 65.1644C58.8413 66.9128 56.3589 67.6356 54.392 67.7757C52.4251 67.9158 48.6034 66.5878 47.5331 66.1955C47.2586 67.8766 46.9728 69.496 46.5693 71.0931C46.39 71.7823 46.2555 72.494 46.0426 73.144L45.4822 75.0997C45.0339 76.4221 44.6249 77.6493 44.1766 78.8709C43.9524 79.4873 43.7339 80.0645 43.5097 80.6641C44.0309 79.7226 44.8826 78.2545 44.9723 78.1256C46.5413 76.0018 50.8169 72.8246 53.6187 73.766C54.08 73.934 54.5008 74.1975 54.8534 74.5392C55.206 74.8809 55.4825 75.2932 55.665 75.749C55.8474 76.2049 55.9317 76.6941 55.9122 77.1847C55.8927 77.6754 55.77 78.1564 55.5519 78.5963C54.689 80.5016 52.3635 81.5887 50.4358 82.0201C48.3177 82.5021 43.7675 81.5775 43.2127 81.4598C42.6524 82.9223 42.092 84.3344 41.5653 85.6513C39.8842 89.8148 38.2872 93.2218 37.1496 95.5921L36.9647 95.9732H45.2525L42.389 151.785C42.3106 153.849 41.4343 155.801 39.9447 157.231C38.4552 158.661 36.4687 159.457 34.4038 159.451C32.359 159.452 30.3918 158.668 28.9088 157.26C27.4258 155.852 26.5404 153.928 26.4355 151.886L23.572 96.074H32.4706C32.4258 95.6874 32.3809 95.2783 32.3305 94.8188C32.0335 92.2411 31.5516 88.554 30.7783 84.1719C30.5598 82.9055 30.3076 81.5662 30.0274 80.1934C29.4671 80.2662 24.8609 80.849 22.7819 80.1934C20.8991 79.633 18.6577 78.3554 17.9404 76.3941C17.7566 75.9391 17.6705 75.4505 17.688 74.9601C17.7054 74.4697 17.8258 73.9884 18.0415 73.5476C18.2571 73.1068 18.5631 72.7163 18.9396 72.4016C19.3161 72.0868 19.7546 71.8548 20.2267 71.7207C23.0901 70.9866 27.1191 74.4833 28.5256 76.7135C28.6153 76.8592 29.4839 78.6692 29.9097 79.605C29.7416 78.7756 29.5791 77.9519 29.3886 77.0889C29.1196 75.8505 28.8282 74.5505 28.4976 73.2841C28.3183 72.6341 28.1334 71.9784 27.9373 71.3172C27.7411 70.656 27.517 70.0284 27.3097 69.3672C26.9846 68.4145 26.598 67.4451 26.1889 66.4757C24.9449 66.8231 21.2689 67.7701 19.3805 67.4955C17.4921 67.221 15.0209 66.3076 14.0179 64.4808C13.7664 64.0587 13.6068 63.5884 13.5493 63.1005C13.4918 62.6125 13.5378 62.118 13.6843 61.649C13.8307 61.1801 14.0743 60.7472 14.3993 60.3788C14.7242 60.0103 15.1231 59.7144 15.5701 59.5104C18.2878 58.3504 22.7987 61.1915 24.5359 63.192C24.5919 63.2536 24.9169 63.7131 25.2924 64.2623C24.8889 63.3321 24.491 62.3962 24.0539 61.4604C22.8099 58.8155 21.4595 56.1538 20.1314 53.4865C19.8512 52.9261 19.571 52.3657 19.3021 51.8054C18.2542 52.1024 14.2588 53.1671 12.3031 52.8813C10.3475 52.5955 7.94352 51.6933 6.94047 49.8609C6.69325 49.439 6.53727 48.9699 6.48262 48.484C6.42797 47.998 6.47586 47.506 6.62319 47.0397C6.77053 46.5734 7.01403 46.1432 7.33798 45.7768C7.66193 45.4105 8.05911 45.1162 8.50388 44.9129C11.2216 43.7586 15.7326 46.594 17.4697 48.6001C17.5313 48.6674 17.918 49.2165 18.3383 49.8385C17.6322 48.376 16.9429 46.9134 16.3041 45.4341C15.2009 42.9094 14.265 40.3149 13.5023 37.6674C13.1381 37.7739 8.50388 39.1188 6.30166 38.7882C4.3516 38.508 1.94764 37.6002 0.94459 35.7734C0.692995 35.3517 0.533055 34.8817 0.475185 34.394C0.417316 33.9064 0.462817 33.412 0.608722 32.9431C0.754627 32.4742 0.997665 32.0413 1.32201 31.6725C1.64635 31.3038 2.04473 31.0075 2.49119 30.803C5.21456 29.6486 9.72548 32.4841 11.457 34.4846C11.5803 34.6303 12.9476 36.6252 13.4127 37.3592C13.4102 37.3275 13.4102 37.2957 13.4127 37.264C12.7273 34.6439 12.2772 31.9678 12.0678 29.2676C11.8618 26.8583 11.7944 24.4391 11.8661 22.0221C11.9221 19.7807 12.107 17.7297 12.2863 15.9198C12.3928 14.9391 12.5049 14.0425 12.6225 13.2076L12.5721 13.2412C12.5217 13.2749 11.5354 9.82302 11.4962 9.59887C11.0591 6.99319 11.754 1.70897 14.3765 0.347284C14.8191 0.133987 15.3016 0.016194 15.7926 0.0015552C16.2837 -0.0130836 16.7724 0.0757583 17.2269 0.262314C17.6814 0.44887 18.0916 0.728963 18.4307 1.08439C18.7699 1.43982 19.0305 1.86264 19.1956 2.32536C19.9577 4.26982 19.1172 6.6962 18.0749 8.38289C17.0326 10.0696 13.592 12.5184 12.7514 13.1067C12.6506 13.9753 12.5497 14.9055 12.46 15.9086C12.32 17.7185 12.1799 19.7639 12.1743 21.9997C12.1743 22.5993 12.1743 23.2381 12.2023 23.8601C12.404 22.8066 12.701 21.3721 12.7626 21.232C13.5752 18.7216 16.6235 14.3507 19.5823 14.3563C20.073 14.3706 20.5553 14.4881 20.9977 14.7011C21.44 14.9141 21.8326 15.2179 22.1497 15.5927C22.4669 15.9675 22.7016 16.4049 22.8385 16.8764C22.9754 17.3479 23.0115 17.8429 22.9444 18.3293C22.7315 20.4083 20.8655 22.1734 19.1788 23.1989C17.4921 24.2243 13.1493 24.8575 12.2191 24.964C12.2639 26.3425 12.3368 27.7658 12.5049 29.2228C12.7707 31.8921 13.2732 34.5324 14.0066 37.1127H14.1748C14.242 36.1208 14.4325 34.0419 14.4661 33.8682C15.0265 31.2849 17.5481 26.5835 20.49 26.2865C20.9794 26.247 21.4716 26.3109 21.9346 26.4742C22.3976 26.6375 22.821 26.8965 23.1773 27.2343C23.5336 27.572 23.8147 27.9811 24.0024 28.4347C24.1902 28.8883 24.2803 29.3764 24.2669 29.8672C24.2669 31.9517 22.625 33.9186 21.0616 35.1178C19.2572 36.5019 14.3709 37.6114 14.186 37.6506C14.9842 40.1952 15.9482 42.6848 17.0718 45.1035C17.8956 46.8966 18.7977 48.6842 19.7223 50.4661C19.756 49.7657 20.0025 47.0367 20.0417 46.8406C20.6021 44.2573 23.1237 39.5559 26.0656 39.2533C26.5548 39.2146 27.0466 39.2792 27.5092 39.4428C27.9718 39.6065 28.3949 39.8655 28.751 40.2031C29.1071 40.5407 29.3882 40.9493 29.5763 41.4025C29.7643 41.8558 29.855 42.3435 29.8425 42.834C29.8425 44.9241 28.195 46.8854 26.6316 48.0846C24.8721 49.4351 20.1987 50.5222 19.8008 50.6118C20.2211 51.4187 20.6413 52.2313 21.0672 53.0382C22.4625 55.6775 23.869 58.3112 25.1915 60.9561C25.6454 61.8751 26.06 62.7941 26.4803 63.7131C26.5532 62.6652 26.7325 60.7712 26.7605 60.6087C27.3209 58.0254 29.8481 53.324 32.7844 53.0214C33.2738 52.9819 33.7659 53.0458 34.2289 53.2091C34.6919 53.3724 35.1154 53.6314 35.4716 53.9692C35.8279 54.3069 36.1091 54.716 36.2968 55.1696C36.4845 55.6232 36.5746 56.1113 36.5612 56.6021C36.5612 58.6922 34.9194 60.6535 33.356 61.8527C31.7926 63.0519 27.87 64.0549 26.7661 64.3239C27.4553 65.8705 28.1166 67.3835 28.6769 68.9301C28.9067 69.6025 29.1813 70.2693 29.3662 70.925L29.9602 72.8806C30.3132 74.2311 30.6494 75.4807 30.952 76.7471C31.1089 77.3859 31.2378 77.9911 31.3835 78.6075C31.2994 77.5428 31.1986 75.8449 31.2042 75.688C31.3443 73.0543 33.1542 68.0391 36.0121 67.2826C36.49 67.1694 36.9864 67.1582 37.4689 67.2496C37.9515 67.3411 38.4093 67.5332 38.8127 67.8133C39.2161 68.0935 39.5559 68.4556 39.81 68.8758C40.0641 69.2961 40.2269 69.7652 40.2877 70.2525C40.3271 70.5083 40.344 70.7671 40.3381 71.0258C41.4888 73.0411 42.1042 75.3175 42.1256 77.6381C42.1256 77.8062 41.8511 79.7955 41.6886 80.8098C42.008 80.0252 42.3218 79.2463 42.6356 78.4282C43.1007 77.2458 43.549 75.985 43.9973 74.7634L44.6249 72.819C44.849 72.1634 44.9835 71.5133 45.1852 70.8465C45.443 69.8715 45.6559 68.846 45.8689 67.8318C44.6417 67.4283 41.0497 66.1955 39.6264 64.9235C38.2031 63.6515 36.6509 61.5277 36.8246 59.4487C36.8487 58.9585 36.9755 58.4788 37.1969 58.0407C37.4182 57.6027 37.7292 57.216 38.1096 56.9059C38.4901 56.5957 38.9314 56.369 39.4051 56.2404C39.8788 56.1118 40.3742 56.0842 40.8592 56.1594C43.7675 56.7198 45.9641 61.5557 46.3003 64.1726C46.3003 64.2566 46.3284 64.817 46.3396 65.4838C46.5189 64.4864 46.7038 63.4833 46.8495 62.4635C47.2754 59.572 47.6116 56.6077 47.9702 53.6434C48.0431 53.0214 48.1271 52.405 48.2 51.7886C47.1633 51.458 43.2632 50.1579 41.7726 48.8243C40.2821 47.4906 38.7971 45.4285 38.9708 43.3495C38.9931 42.8587 39.1188 42.3781 39.3396 41.9391C39.5605 41.5002 39.8715 41.1128 40.2523 40.8023C40.6331 40.4918 41.0752 40.2653 41.5496 40.1374C42.0241 40.0095 42.5201 39.9832 43.0054 40.0602C45.9137 40.6205 48.1047 45.4565 48.4465 48.0734C48.4465 48.163 48.4465 48.8355 48.4858 49.5864C48.6987 47.9725 48.9341 46.3755 49.2198 44.7896C49.6848 42.0627 50.3344 39.3705 51.1643 36.7316C50.7945 36.6196 46.1939 35.185 44.5352 33.7057C43.0615 32.3888 41.5541 30.3099 41.7334 28.2309C41.7557 27.7401 41.8814 27.2595 42.1022 26.8205C42.3231 26.3816 42.6341 25.9942 43.0149 25.6837C43.3957 25.3733 43.8378 25.1467 44.3122 25.0188C44.7866 24.8909 45.2827 24.8646 45.768 24.9416C48.6707 25.502 50.8673 30.3379 51.2091 32.9548C51.2091 33.1397 51.2708 35.5605 51.2539 36.429C51.2539 36.3954 51.2539 36.3618 51.282 36.3338C52.1575 33.7704 53.2583 31.2895 54.5713 28.9202C55.7372 26.7933 57.0244 24.7353 58.4266 22.7562C59.7098 20.9126 60.9931 19.31 62.1474 17.8978C62.775 17.1357 63.3634 16.4521 63.9181 15.8189H63.8565C63.8005 15.8189 64.882 12.3895 64.9772 12.1821C66.0531 9.77258 69.5442 5.74358 72.4805 6.05738C72.9695 6.12403 73.4389 6.29345 73.8578 6.55451C74.2767 6.81557 74.6356 7.16235 74.9108 7.57205C75.186 7.98174 75.3714 8.44506 75.4548 8.93154C75.5381 9.41802 75.5175 9.91663 75.3944 10.3946ZM41.498 81.3365C40.9937 81.0955 37.1216 79.1791 35.6086 77.5372C34.2991 78.2505 32.9481 78.8849 31.5628 79.4369C31.9046 80.9611 32.2296 82.446 32.5042 83.8413C33.3784 88.257 33.9444 91.9666 34.303 94.5723C34.3758 95.1326 34.4431 95.6201 34.4991 96.074H34.6952L35.3453 94.8132C36.5164 92.4989 38.1471 89.1591 39.929 85.0685C40.4446 83.8917 40.9713 82.6365 41.498 81.3365ZM56.9865 24.908C57.0313 24.908 57.9279 21.4617 57.9615 21.232C58.3257 18.6207 57.4908 13.3533 54.8291 12.0645C54.3806 11.8634 53.8949 11.759 53.4034 11.7581C52.9119 11.7571 52.4258 11.8596 51.9765 12.0588C51.5273 12.2581 51.125 12.5497 50.7958 12.9146C50.4667 13.2795 50.218 13.7097 50.066 14.177C49.3543 16.1383 50.2621 18.5423 51.3324 20.1953C52.5876 22.1622 56.9809 24.908 56.9865 24.908Z" fill="#92A4E3"/>
<path opacity="0.3" d="M0.126461 19.4388C-0.00427023 18.966 -0.0340574 18.471 0.0390328 17.986C0.112123 17.5009 0.286455 17.0366 0.550703 16.6234C0.81495 16.2101 1.1632 15.857 1.57282 15.5871C1.98244 15.3172 2.44426 15.1365 2.92827 15.0568C5.85897 14.6589 9.4565 18.5927 10.5996 20.9742C10.6949 21.1816 11.8661 24.5774 11.81 24.5774C11.754 24.5774 6.61546 24.695 4.52531 23.7648C2.69292 22.9747 0.613977 21.4674 0.126461 19.4388ZM75.3944 10.3946C74.9629 12.4343 72.9232 13.9977 71.1412 14.8383C69.3593 15.6788 65.1285 15.8245 64.0919 15.8413C63.5315 16.5081 62.9319 17.231 62.2875 18.0379C61.1668 19.4725 59.9228 21.1031 58.69 22.9635C58.3593 23.4622 58.0231 24.0058 57.6869 24.5325C58.4378 23.7648 59.4745 22.7282 59.5865 22.6385C61.6543 20.9966 66.6079 19.0298 69.0679 20.666C69.4693 20.9484 69.8068 21.3121 70.0584 21.7335C70.31 22.1549 70.4701 22.6245 70.5283 23.1118C70.5864 23.5992 70.5413 24.0933 70.3959 24.562C70.2505 25.0308 70.008 25.4637 69.6843 25.8326C68.3562 27.4464 65.829 27.8947 63.8565 27.8163C61.884 27.7378 57.9447 25.8606 57.1041 25.4403C56.3813 26.6115 55.664 27.8331 54.9916 29.1499C53.7396 31.5237 52.7025 34.0048 51.8928 36.5635L52.0441 36.6364C52.6437 35.8463 53.9493 34.2156 54.0726 34.0979C55.9442 32.2319 60.6568 29.7383 63.2849 31.0888C63.71 31.327 64.0807 31.6513 64.3734 32.041C64.666 32.4307 64.874 32.8771 64.9843 33.3518C65.0945 33.8264 65.1045 34.3189 65.0135 34.7976C64.9226 35.2764 64.7327 35.7309 64.4561 36.132C63.3354 37.886 60.853 38.6088 58.8861 38.7433C56.6446 38.9058 51.932 37.1351 51.7527 37.0622C51.0254 39.6254 50.4639 42.2328 50.0716 44.8681C49.769 46.8182 49.5392 48.7906 49.3263 50.8023C49.7354 50.242 51.4501 48.0958 51.5678 47.9557C53.4394 46.0953 58.152 43.5961 60.7745 44.9522C61.2048 45.189 61.5804 45.5138 61.8768 45.9054C62.1732 46.297 62.3837 46.7467 62.4948 47.2252C62.6058 47.7036 62.6148 48.2001 62.5211 48.6822C62.4275 49.1643 62.2333 49.6213 61.9513 50.0234C60.8306 51.7718 58.3481 52.4946 56.3813 52.6291C54.1678 52.786 49.6569 51.1105 49.2871 50.948C49.1918 51.8558 49.0966 52.758 49.0069 53.6714C48.7155 56.6357 48.4465 59.6168 48.0767 62.5475C47.9478 63.5618 47.7909 64.5592 47.634 65.5567C48.2728 64.7273 49.4608 63.2424 49.5785 63.1247C51.4501 61.2643 56.1627 58.7651 58.7908 60.1212C59.2166 60.3588 59.5879 60.6828 59.881 61.0724C60.1741 61.462 60.3825 61.9086 60.4928 62.3835C60.6031 62.8585 60.6128 63.3512 60.5214 63.8301C60.43 64.309 60.2395 64.7635 59.962 65.1644C58.8413 66.9128 56.3589 67.6356 54.392 67.7757C52.4251 67.9158 48.6034 66.5878 47.5331 66.1955C47.2586 67.8766 46.9728 69.496 46.5693 71.0931C46.39 71.7823 46.2555 72.494 46.0426 73.144L45.4822 75.0997C45.0339 76.4221 44.6249 77.6493 44.1766 78.8709C43.9524 79.4873 43.7339 80.0645 43.5097 80.6641C44.0309 79.7226 44.8826 78.2545 44.9723 78.1256C46.5413 76.0018 50.8169 72.8246 53.6187 73.766C54.08 73.934 54.5008 74.1975 54.8534 74.5392C55.206 74.8809 55.4825 75.2932 55.665 75.749C55.8474 76.2049 55.9317 76.6941 55.9122 77.1847C55.8927 77.6754 55.77 78.1564 55.5519 78.5963C54.689 80.5016 52.3635 81.5887 50.4358 82.0201C48.3177 82.5021 43.7675 81.5775 43.2127 81.4598C42.6524 82.9223 42.092 84.3344 41.5653 85.6513C39.8842 89.8148 38.2872 93.2218 37.1496 95.5921L36.9647 95.9732H45.2525L42.389 151.785C42.3106 153.849 41.4343 155.801 39.9447 157.231C38.4552 158.661 36.4687 159.457 34.4038 159.451C32.359 159.452 30.3918 158.668 28.9088 157.26C27.4258 155.852 26.5404 153.928 26.4355 151.886L23.572 96.074H32.4706C32.4258 95.6874 32.3809 95.2783 32.3305 94.8188C32.0335 92.2411 31.5516 88.554 30.7783 84.1719C30.5598 82.9055 30.3076 81.5662 30.0274 80.1934C29.4671 80.2662 24.8609 80.849 22.7819 80.1934C20.8991 79.633 18.6577 78.3554 17.9404 76.3941C17.7566 75.9391 17.6705 75.4505 17.688 74.9601C17.7054 74.4697 17.8258 73.9884 18.0415 73.5476C18.2571 73.1068 18.5631 72.7163 18.9396 72.4016C19.3161 72.0868 19.7546 71.8548 20.2267 71.7207C23.0901 70.9866 27.1191 74.4833 28.5256 76.7135C28.6153 76.8592 29.4839 78.6692 29.9097 79.605C29.7416 78.7756 29.5791 77.9519 29.3886 77.0889C29.1196 75.8505 28.8282 74.5505 28.4976 73.2841C28.3183 72.6341 28.1334 71.9784 27.9373 71.3172C27.7411 70.656 27.517 70.0284 27.3097 69.3672C26.9846 68.4145 26.598 67.4451 26.1889 66.4757C24.9449 66.8231 21.2689 67.7701 19.3805 67.4955C17.4921 67.221 15.0209 66.3076 14.0179 64.4808C13.7664 64.0587 13.6068 63.5884 13.5493 63.1005C13.4918 62.6125 13.5378 62.118 13.6843 61.649C13.8307 61.1801 14.0743 60.7472 14.3993 60.3788C14.7242 60.0103 15.1231 59.7144 15.5701 59.5104C18.2878 58.3504 22.7987 61.1915 24.5359 63.192C24.5919 63.2536 24.9169 63.7131 25.2924 64.2623C24.8889 63.3321 24.491 62.3962 24.0539 61.4604C22.8099 58.8155 21.4595 56.1538 20.1314 53.4865C19.8512 52.9261 19.571 52.3657 19.3021 51.8054C18.2542 52.1024 14.2588 53.1671 12.3031 52.8813C10.3475 52.5955 7.94352 51.6933 6.94047 49.8609C6.69325 49.439 6.53727 48.9699 6.48262 48.484C6.42797 47.998 6.47586 47.506 6.62319 47.0397C6.77053 46.5734 7.01403 46.1432 7.33798 45.7768C7.66193 45.4105 8.05911 45.1162 8.50388 44.9129C11.2216 43.7586 15.7326 46.594 17.4697 48.6001C17.5313 48.6674 17.918 49.2165 18.3383 49.8385C17.6322 48.376 16.9429 46.9134 16.3041 45.4341C15.2009 42.9094 14.265 40.3149 13.5023 37.6674C13.1381 37.7739 8.50388 39.1188 6.30166 38.7882C4.3516 38.508 1.94764 37.6002 0.94459 35.7734C0.692995 35.3517 0.533055 34.8817 0.475185 34.394C0.417316 33.9064 0.462817 33.412 0.608722 32.9431C0.754627 32.4742 0.997665 32.0413 1.32201 31.6725C1.64635 31.3038 2.04473 31.0075 2.49119 30.803C5.21456 29.6486 9.72548 32.4841 11.457 34.4846C11.5803 34.6303 12.9476 36.6252 13.4127 37.3592C13.4102 37.3275 13.4102 37.2957 13.4127 37.264C12.7273 34.6439 12.2772 31.9678 12.0678 29.2676C11.8618 26.8583 11.7944 24.4391 11.8661 22.0221C11.9221 19.7807 12.107 17.7297 12.2863 15.9198C12.3928 14.9391 12.5049 14.0425 12.6225 13.2076L12.5721 13.2412C12.5217 13.2749 11.5354 9.82302 11.4962 9.59887C11.0591 6.99319 11.754 1.70897 14.3765 0.347284C14.8191 0.133987 15.3016 0.016194 15.7926 0.0015552C16.2837 -0.0130836 16.7724 0.0757583 17.2269 0.262314C17.6814 0.44887 18.0916 0.728963 18.4307 1.08439C18.7699 1.43982 19.0305 1.86264 19.1956 2.32536C19.9577 4.26982 19.1172 6.6962 18.0749 8.38289C17.0326 10.0696 13.592 12.5184 12.7514 13.1067C12.6506 13.9753 12.5497 14.9055 12.46 15.9086C12.32 17.7185 12.1799 19.7639 12.1743 21.9997C12.1743 22.5993 12.1743 23.2381 12.2023 23.8601C12.404 22.8066 12.701 21.3721 12.7626 21.232C13.5752 18.7216 16.6235 14.3507 19.5823 14.3563C20.073 14.3706 20.5553 14.4881 20.9977 14.7011C21.44 14.9141 21.8326 15.2179 22.1497 15.5927C22.4669 15.9675 22.7016 16.4049 22.8385 16.8764C22.9754 17.3479 23.0115 17.8429 22.9444 18.3293C22.7315 20.4083 20.8655 22.1734 19.1788 23.1989C17.4921 24.2243 13.1493 24.8575 12.2191 24.964C12.2639 26.3425 12.3368 27.7658 12.5049 29.2228C12.7707 31.8921 13.2732 34.5324 14.0066 37.1127H14.1748C14.242 36.1208 14.4325 34.0419 14.4661 33.8682C15.0265 31.2849 17.5481 26.5835 20.49 26.2865C20.9794 26.247 21.4716 26.3109 21.9346 26.4742C22.3976 26.6375 22.821 26.8965 23.1773 27.2343C23.5336 27.572 23.8147 27.9811 24.0024 28.4347C24.1902 28.8883 24.2803 29.3764 24.2669 29.8672C24.2669 31.9517 22.625 33.9186 21.0616 35.1178C19.2572 36.5019 14.3709 37.6114 14.186 37.6506C14.9842 40.1952 15.9482 42.6848 17.0718 45.1035C17.8956 46.8966 18.7977 48.6842 19.7223 50.4661C19.756 49.7657 20.0025 47.0367 20.0417 46.8406C20.6021 44.2573 23.1237 39.5559 26.0656 39.2533C26.5548 39.2146 27.0466 39.2792 27.5092 39.4428C27.9718 39.6065 28.3949 39.8655 28.751 40.2031C29.1071 40.5407 29.3882 40.9493 29.5763 41.4025C29.7643 41.8558 29.855 42.3435 29.8425 42.834C29.8425 44.9241 28.195 46.8854 26.6316 48.0846C24.8721 49.4351 20.1987 50.5222 19.8008 50.6118C20.2211 51.4187 20.6413 52.2313 21.0672 53.0382C22.4625 55.6775 23.869 58.3112 25.1915 60.9561C25.6454 61.8751 26.06 62.7941 26.4803 63.7131C26.5532 62.6652 26.7325 60.7712 26.7605 60.6087C27.3209 58.0254 29.8481 53.324 32.7844 53.0214C33.2738 52.9819 33.7659 53.0458 34.2289 53.2091C34.6919 53.3724 35.1154 53.6314 35.4716 53.9692C35.8279 54.3069 36.1091 54.716 36.2968 55.1696C36.4845 55.6232 36.5746 56.1113 36.5612 56.6021C36.5612 58.6922 34.9194 60.6535 33.356 61.8527C31.7926 63.0519 27.87 64.0549 26.7661 64.3239C27.4553 65.8705 28.1166 67.3835 28.6769 68.9301C28.9067 69.6025 29.1813 70.2693 29.3662 70.925L29.9602 72.8806C30.3132 74.2311 30.6494 75.4807 30.952 76.7471C31.1089 77.3859 31.2378 77.9911 31.3835 78.6075C31.2994 77.5428 31.1986 75.8449 31.2042 75.688C31.3443 73.0543 33.1542 68.0391 36.0121 67.2826C36.49 67.1694 36.9864 67.1582 37.4689 67.2496C37.9515 67.3411 38.4093 67.5332 38.8127 67.8133C39.2161 68.0935 39.5559 68.4556 39.81 68.8758C40.0641 69.2961 40.2269 69.7652 40.2877 70.2525C40.3271 70.5083 40.344 70.7671 40.3381 71.0258C41.4888 73.0411 42.1042 75.3175 42.1256 77.6381C42.1256 77.8062 41.8511 79.7955 41.6886 80.8098C42.008 80.0252 42.3218 79.2463 42.6356 78.4282C43.1007 77.2458 43.549 75.985 43.9973 74.7634L44.6249 72.819C44.849 72.1634 44.9835 71.5133 45.1852 70.8465C45.443 69.8715 45.6559 68.846 45.8689 67.8318C44.6417 67.4283 41.0497 66.1955 39.6264 64.9235C38.2031 63.6515 36.6509 61.5277 36.8246 59.4487C36.8487 58.9585 36.9755 58.4788 37.1969 58.0407C37.4182 57.6027 37.7292 57.216 38.1096 56.9059C38.4901 56.5957 38.9314 56.369 39.4051 56.2404C39.8788 56.1118 40.3742 56.0842 40.8592 56.1594C43.7675 56.7198 45.9641 61.5557 46.3003 64.1726C46.3003 64.2566 46.3284 64.817 46.3396 65.4838C46.5189 64.4864 46.7038 63.4833 46.8495 62.4635C47.2754 59.572 47.6116 56.6077 47.9702 53.6434C48.0431 53.0214 48.1271 52.405 48.2 51.7886C47.1633 51.458 43.2632 50.1579 41.7726 48.8243C40.2821 47.4906 38.7971 45.4285 38.9708 43.3495C38.9931 42.8587 39.1188 42.3781 39.3396 41.9391C39.5605 41.5002 39.8715 41.1128 40.2523 40.8023C40.6331 40.4918 41.0752 40.2653 41.5496 40.1374C42.0241 40.0095 42.5201 39.9832 43.0054 40.0602C45.9137 40.6205 48.1047 45.4565 48.4465 48.0734C48.4465 48.163 48.4465 48.8355 48.4858 49.5864C48.6987 47.9725 48.9341 46.3755 49.2198 44.7896C49.6848 42.0627 50.3344 39.3705 51.1643 36.7316C50.7945 36.6196 46.1939 35.185 44.5352 33.7057C43.0615 32.3888 41.5541 30.3099 41.7334 28.2309C41.7557 27.7401 41.8814 27.2595 42.1022 26.8205C42.3231 26.3816 42.6341 25.9942 43.0149 25.6837C43.3957 25.3733 43.8378 25.1467 44.3122 25.0188C44.7866 24.8909 45.2827 24.8646 45.768 24.9416C48.6707 25.502 50.8673 30.3379 51.2091 32.9548C51.2091 33.1397 51.2708 35.5605 51.2539 36.429C51.2539 36.3954 51.2539 36.3618 51.282 36.3338C52.1575 33.7704 53.2583 31.2895 54.5713 28.9202C55.7372 26.7933 57.0244 24.7353 58.4266 22.7562C59.7098 20.9126 60.9931 19.31 62.1474 17.8978C62.775 17.1357 63.3634 16.4521 63.9181 15.8189H63.8565C63.8005 15.8189 64.882 12.3895 64.9772 12.1821C66.0531 9.77258 69.5442 5.74358 72.4805 6.05738C72.9695 6.12403 73.4389 6.29345 73.8578 6.55451C74.2767 6.81557 74.6356 7.16235 74.9108 7.57205C75.186 7.98174 75.3714 8.44506 75.4548 8.93154C75.5381 9.41802 75.5175 9.91663 75.3944 10.3946ZM41.498 81.3365C40.9937 81.0955 37.1216 79.1791 35.6086 77.5372C34.2991 78.2505 32.9481 78.8849 31.5628 79.4369C31.9046 80.9611 32.2296 82.446 32.5042 83.8413C33.3784 88.257 33.9444 91.9666 34.303 94.5723C34.3758 95.1326 34.4431 95.6201 34.4991 96.074H34.6952L35.3453 94.8132C36.5164 92.4989 38.1471 89.1591 39.929 85.0685C40.4446 83.8917 40.9713 82.6365 41.498 81.3365ZM56.9865 24.908C57.0313 24.908 57.9279 21.4617 57.9615 21.232C58.3257 18.6207 57.4908 13.3533 54.8291 12.0645C54.3806 11.8634 53.8949 11.759 53.4034 11.7581C52.9119 11.7571 52.4258 11.8596 51.9765 12.0588C51.5273 12.2581 51.125 12.5497 50.7958 12.9146C50.4667 13.2795 50.218 13.7097 50.066 14.177C49.3543 16.1383 50.2621 18.5423 51.3324 20.1953C52.5876 22.1622 56.9809 24.908 56.9865 24.908Z" fill="white"/>
<path d="M215.619 44.7225C215.619 44.7225 210.139 48.914 209.383 52.1417C208.626 55.3693 209.601 58.8044 210.246 60.8497C210.89 62.895 210.996 72.7854 204.978 77.1899C198.96 81.5943 196.27 86.0044 196.915 91.4903C197.559 96.9763 205.729 102.995 212.504 104.379C219.279 105.763 228.844 102.658 232.604 94.5947C236.364 86.5311 231.315 77.6382 228.519 72.5949C225.723 67.5516 225.941 62.811 229.079 62.598C232.217 62.3851 233.809 63.1584 233.921 58.7259C234.033 54.2935 232.951 47.4402 227.253 43.9996C221.554 40.559 215.619 44.7225 215.619 44.7225Z" fill="#2E353A" stroke="#2E353A" stroke-width="0.194252" stroke-linecap="round" stroke-linejoin="round"/>
<path d="M202.126 98.7974C202.686 99.1728 207.73 101.229 211.462 95.4352C215.194 89.6411 210.111 84.3008 211.092 79.1847" stroke="white" stroke-width="0.097126" stroke-miterlimit="10"/>
<path d="M221.75 51.3907C221.75 51.3907 220.002 45.7422 223.79 47.5746C227.852 49.5359 231.074 58.7819 229.673 60.8832" stroke="white" stroke-width="0.097126" stroke-miterlimit="10"/>
<path d="M220.708 50.6566C220.708 50.6566 218.606 46.594 220.007 44.7728C221.408 42.9516 224.63 45.053 226.311 46.3138" stroke="white" stroke-width="0.097126" stroke-miterlimit="10"/>
<path d="M225.471 61.7239C225.471 61.7239 226.031 64.2455 224.35 69.2888C222.669 74.332 219.587 80.0758 222.669 85.3992C225.751 90.7226 228.132 94.365 224.63 99.6884" stroke="white" stroke-width="0.097126" stroke-miterlimit="10"/>
<path d="M225.471 64.6656C225.593 67.9501 225.358 71.2382 224.77 74.472C223.79 80.0756 226.872 83.718 230.094 87.2202C233.316 90.7225 232.475 93.6644 231.354 96.8865" stroke="white" stroke-width="0.097126" stroke-miterlimit="10"/>
<path d="M220.567 51.4972C220.567 51.4972 213.983 52.0576 212.022 51.217C210.061 50.3765 210.481 49.676 210.481 49.676" stroke="white" stroke-width="0.097126" stroke-miterlimit="10"/>
<path d="M221.442 73.8781C221.442 73.8781 222.299 82.5861 223.397 87.6238C224.496 92.6614 226.244 99.0215 225.807 100.775C225.37 102.529 215.72 117.429 215.72 117.429L212.874 115.457L218.791 97.7047L213.81 81.0619C213.81 81.0619 218.371 74.3768 221.442 73.8781Z" fill="white" stroke="#2E353A" stroke-width="0.194252" stroke-linecap="round" stroke-linejoin="round"/>
<path d="M220.674 72.4603C219.273 70.8465 216.264 66.655 216.264 66.655L211.534 61.0513L204.978 52.0239C204.115 50.8415 201.213 51.2674 192.83 51.3795C184.447 51.4916 159 46.65 159 46.65L158.143 52.2537C158.143 52.2537 181.432 57.2969 187.344 57.8573C193.255 58.4176 198.741 59.1461 198.741 59.1461C197.934 60.7547 197.215 62.4065 196.59 64.0941C195.945 66.0274 188.419 76.3492 188.419 76.3492C188.419 76.3492 188.235 76.4613 187.915 76.6743C187.831 78.5459 188.01 82.5188 190.807 84.6146C192.97 86.234 196.136 86.9177 198.422 87.2035C198.461 87.0746 198.495 86.9625 198.523 86.8841C198.848 86.0211 201.213 84.7323 202.501 84.6426C203.79 84.553 207.769 84.7491 210.139 84.5361C212.509 84.3232 213.793 81.0955 213.793 81.0955C213.793 81.0955 219.015 75.9962 221.419 73.9117C221.27 73.383 221.017 72.8895 220.674 72.4603Z" fill="white" stroke="#2E353A" stroke-width="0.194252" stroke-linecap="round" stroke-linejoin="round"/>
<path d="M201.717 60.4463L198.741 59.1294L200.904 62.57" stroke="#2E353A" stroke-width="0.145689" stroke-linecap="round" stroke-linejoin="round"/>
<path d="M194.214 80.0253C196.453 81.4146 199.103 81.9905 201.717 81.6559" stroke="#2E353A" stroke-width="0.145689" stroke-linecap="round" stroke-linejoin="round"/>
<path d="M191.742 76.1084C191.742 76.1084 192.23 78.0697 195.334 79.3753" stroke="#2E353A" stroke-width="0.145689" stroke-linecap="round" stroke-linejoin="round"/>
<path d="M218.774 97.7047C218.774 97.7047 220.808 96.8305 222.439 99.1168" stroke="#2E353A" stroke-width="0.145689" stroke-linecap="round" stroke-linejoin="round"/>
<path d="M219.34 82.474L213.793 81.0619L218.685 84.9228" stroke="#2E353A" stroke-width="0.145689" stroke-linecap="round" stroke-linejoin="round"/>
<path d="M204.166 54.1029C204.166 54.1029 201.392 58.9949 198.131 58.8324C193.698 58.6082 181.157 54.9099 181.157 53.6098C181.157 52.3098 184.587 51.8167 184.587 51.8167" stroke="#2E353A" stroke-width="0.145689" stroke-linecap="round" stroke-linejoin="round"/>
<path d="M213.793 58.1599C213.793 58.1599 211.551 57.5995 209.921 58.5914C208.29 59.5832 204.009 68.9133 204.009 68.9133C204.009 68.9133 204.328 69.3447 205.623 69.3447C206.917 69.3447 207.236 71.0651 207.236 72.6733C207.236 74.2815 207.124 75.038 207.662 74.9147C208.2 74.7915 211.428 73.6259 212.072 74.0574C212.717 74.4889 211.209 76.6351 211.512 76.8592C211.815 77.0833 214.521 74.3824 215.384 71.4797C216.247 68.577 217.104 64.2791 216.886 62.5587C216.667 60.8384 215.278 58.5858 213.793 58.1599Z" fill="#92A4E3" stroke="#2E353A" stroke-width="0.194252" stroke-linecap="round" stroke-linejoin="round"/>
<path d="M215.619 67.0865C214.436 68.4074 213.18 69.6626 211.859 70.8466C209.383 73.088 207.343 74.7187 207.449 73.6484C207.556 72.5781 210.027 66.7671 210.671 63.5619C211.316 60.3566 212.504 58.1824 213.793 58.1824C215.082 58.1824 217.878 64.7498 215.619 67.0865Z" fill="white" stroke="#2E353A" stroke-width="0.194252" stroke-linecap="round" stroke-linejoin="round"/>
<path d="M214.331 53.2175C214.417 53.4793 214.557 53.7199 214.742 53.9237C214.928 54.1274 215.154 54.2897 215.407 54.3999C216.157 54.6128 221.75 51.3907 221.75 51.3907C221.75 51.3907 225.728 59.8802 225.078 61.1691C224.428 62.4579 222.501 64.0774 220.349 65.5791C218.197 67.0809 214.224 68.2689 212.717 67.4059C211.209 66.543 212.285 57.734 212.285 57.734C212.285 57.734 211.103 56.3331 212.392 54.0749C213.681 51.8166 214.331 53.2175 214.331 53.2175Z" fill="white" stroke="#2E353A" stroke-width="0.194252" stroke-linecap="round" stroke-linejoin="round"/>
<path d="M223.336 61.9871C223.336 61.9871 223.431 61.3203 222.187 61.3203C220.943 61.3203 218.758 63.6066 218.758 63.6066" stroke="#2E353A" stroke-width="0.145689" stroke-linecap="round" stroke-linejoin="round"/>
<path d="M217.9 63.7972L217.233 63.1304" stroke="#2E353A" stroke-width="0.145689" stroke-linecap="round" stroke-linejoin="round"/>
<path d="M216.959 65.0411C216.959 65.0411 215.244 64.7553 214.958 62.5587" stroke="#2E353A" stroke-width="0.145689" stroke-linecap="round" stroke-linejoin="round"/>
<path d="M220.926 58.5241C220.926 58.5241 220.5 56.434 218.685 56.0305" stroke="#2E353A" stroke-width="0.145689" stroke-linecap="round" stroke-linejoin="round"/>
<path d="M218.769 59.6449C218.332 59.9867 217.85 60.0988 217.687 59.8915C217.525 59.6841 217.743 59.2414 218.175 58.8996C218.606 58.5578 219.094 58.4457 219.256 58.6531C219.419 58.8604 219.2 59.3031 218.769 59.6449Z" fill="#2E353A"/>
<path d="M221.47 63.1752C221.111 63.4554 220.713 63.5506 220.579 63.3769C220.444 63.2032 220.623 62.8166 220.982 62.5532C221.341 62.2898 221.739 62.1834 221.873 62.3515C222.008 62.5196 221.828 62.8894 221.47 63.1752Z" fill="#2E353A"/>
<path d="M211.008 154.671L216.505 162.309C216.505 162.309 216.505 163.71 214.544 163.71C212.582 163.71 211.462 163.71 210.341 162.309C209.22 160.908 209.22 160.068 208.099 159.507C206.979 158.947 205.858 158.947 206.418 155.865C206.979 152.783 211.008 154.671 211.008 154.671Z" fill="white" stroke="#2E353A" stroke-width="0.194252" stroke-linecap="round" stroke-linejoin="round"/>
<path d="M216.482 162.483C215.612 162.901 214.635 163.045 213.681 162.897C211.697 162.539 210.492 160.555 209.758 159.703C209.024 158.852 208.127 158.857 207.281 158.146C206.879 157.802 206.528 157.401 206.239 156.958C206.121 158.952 207.091 159.02 208.055 159.507C209.175 160.068 209.175 160.908 210.296 162.309C211.417 163.71 212.538 163.71 214.499 163.71C216.073 163.71 216.398 162.858 216.482 162.483Z" fill="white" stroke="#2E353A" stroke-width="0.194252" stroke-linecap="round" stroke-linejoin="round"/>
<path d="M210.694 153.702C209.573 150.34 207.976 130.211 207.147 123.84C205.466 110.884 197.99 94.0679 197.99 94.0679L198.422 87.1867C196.136 86.9009 192.97 86.2173 190.807 84.5978C188.005 82.5021 187.831 78.5291 187.915 76.6575C186.497 77.5709 182.312 80.3222 178.742 83.2137C174.338 86.7608 171.323 99.341 170.465 103.314C169.608 107.287 168.639 119.004 168.639 119.004C168.639 119.004 160.894 122.013 157.779 126.289C154.663 130.564 145.199 140.264 145.199 140.264L146.062 143.492C146.062 143.492 148.964 141.452 151.436 139.513C153.907 137.575 173.155 126.827 174.444 126.065C175.733 125.303 177.246 123.823 178.961 119.508C179.588 117.934 180.474 115.356 181.348 112.717L184.334 103.415L187.209 100.966C190.045 108.632 196.634 123.409 197.57 125.521C198.691 128.054 199.543 139.317 202.641 146.361C205.74 153.405 206.564 156.784 206.564 156.784C206.564 156.784 211.82 157.081 210.694 153.702Z" fill="#2E353A" stroke="#2E353A" stroke-width="0.194252" stroke-linecap="round" stroke-linejoin="round"/>
<path d="M198.237 88.5148L199.307 94.7628" stroke="white" stroke-width="0.097126" stroke-miterlimit="10"/>
<path d="M46.7093 40.2563L30.5261 177.713C30.5041 177.911 30.5382 178.111 30.6243 178.291C30.7104 178.471 30.8452 178.622 31.0133 178.729C31.1814 178.836 31.3761 178.894 31.5752 178.895C31.7744 178.897 31.97 178.843 32.1399 178.739L42.5402 172.339C43.1575 171.957 43.8993 171.829 44.6091 171.983C45.3189 172.136 45.9413 172.56 46.3451 173.163L59.4128 192.591L64.8651 110.868L46.7093 40.2563Z" fill="#92A4E3" stroke="#2E353A" stroke-width="0.194252" stroke-linecap="round" stroke-linejoin="round"/>
<path d="M46.6085 43.7137L31.983 174.278C31.9514 174.56 32.0027 174.845 32.1307 175.098C32.2587 175.351 32.4577 175.561 32.7034 175.703C32.9491 175.844 33.2308 175.911 33.5139 175.895C33.7971 175.879 34.0693 175.781 34.2973 175.612L41.9014 170.008C42.2969 169.716 42.7479 169.507 43.2268 169.395C43.7057 169.283 44.2025 169.27 44.6867 169.356C45.1709 169.443 45.6323 169.627 46.0428 169.898C46.4532 170.169 46.8039 170.521 47.0736 170.933L55.9721 184.516C56.0686 184.667 56.2127 184.781 56.3817 184.841C56.5507 184.9 56.7346 184.901 56.9043 184.844C57.0739 184.786 57.2194 184.674 57.3176 184.524C57.4158 184.374 57.4609 184.196 57.4459 184.017L47.0568 43.7193C47.046 43.6683 47.0181 43.6224 46.9778 43.5893C46.9374 43.5562 46.887 43.5378 46.8349 43.5371C46.7827 43.5365 46.7318 43.5536 46.6907 43.5857C46.6495 43.6178 46.6206 43.6629 46.6085 43.7137Z" fill="#92A4E3" stroke="#2E353A" stroke-width="0.194252" stroke-linecap="round" stroke-linejoin="round"/>
<path opacity="0.6" d="M46.8102 41.8197L31.9718 174.267C31.9402 174.549 31.9915 174.834 32.1195 175.087C32.2475 175.34 32.4465 175.55 32.6922 175.692C32.9379 175.833 33.2196 175.9 33.5027 175.884C33.7859 175.868 34.0581 175.769 34.2861 175.601L41.8902 169.997C42.2857 169.705 42.7367 169.496 43.2156 169.384C43.6945 169.272 44.1913 169.258 44.6755 169.345C45.1597 169.432 45.6211 169.616 46.0316 169.887C46.442 170.158 46.7927 170.51 47.0624 170.922L55.9609 184.505C56.0574 184.656 56.2015 184.77 56.3705 184.829C56.5395 184.889 56.7234 184.89 56.8931 184.832C57.0627 184.775 57.2082 184.662 57.3064 184.513C57.4046 184.363 57.4497 184.185 57.4347 184.006L46.9167 41.8197C46.913 41.8085 46.9059 41.7987 46.8963 41.7918C46.8868 41.7849 46.8753 41.7811 46.8635 41.7811C46.8517 41.7811 46.8402 41.7849 46.8306 41.7918C46.821 41.7987 46.8139 41.8085 46.8102 41.8197Z" fill="black"/>
<path d="M44.1037 169.28C44.6924 169.29 45.2696 169.444 45.7853 169.728C46.3009 170.012 46.7393 170.418 47.0624 170.91L55.9609 184.494C56.0574 184.645 56.2016 184.759 56.3705 184.818C56.5395 184.878 56.7234 184.879 56.8931 184.821C57.0627 184.764 57.2082 184.651 57.3064 184.502C57.4046 184.352 57.4497 184.173 57.4347 183.995L56.1627 166.825L43.9131 169.224C43.9783 169.237 44.042 169.255 44.1037 169.28Z" fill="#92A4E3" stroke="#2E353A" stroke-width="0.194252" stroke-linecap="round" stroke-linejoin="round"/>
<path opacity="0.3" d="M44.1037 169.28C44.6924 169.29 45.2696 169.444 45.7853 169.728C46.3009 170.012 46.7393 170.418 47.0624 170.91L55.9609 184.494C56.0574 184.645 56.2016 184.759 56.3705 184.818C56.5395 184.878 56.7234 184.879 56.8931 184.821C57.0627 184.764 57.2082 184.651 57.3064 184.502C57.4046 184.352 57.4497 184.173 57.4347 183.995L56.1627 166.825L43.9131 169.224C43.9783 169.237 44.042 169.255 44.1037 169.28Z" fill="black"/>
<path d="M47.04 40.1722L59.4072 192.591L203.617 165.111L169.726 46.241L47.04 40.1722Z" fill="#2E353A" stroke="#2E353A" stroke-width="0.194252" stroke-linecap="round" stroke-linejoin="round"/>
<path d="M53.7251 43.4615L62.2202 184.533L197.828 159.877L169.244 50.2756L53.7251 43.4615Z" fill="#92A4E3" stroke="#2E353A" stroke-width="0.194252" stroke-linecap="round" stroke-linejoin="round"/>
<path d="M62.0129 112.885L68.4626 179.753L191.675 157.35L180.227 107.091L62.0129 112.885Z" fill="white" stroke="#2E353A" stroke-width="0.194252" stroke-linecap="round" stroke-linejoin="round"/>
<path d="M85.7946 176.424L83.7493 154.946" stroke="#2E353A" stroke-width="0.194252" stroke-linecap="round" stroke-linejoin="round"/>
<path d="M104.651 173.101L102.678 155.198" stroke="#2E353A" stroke-width="0.194252" stroke-linecap="round" stroke-linejoin="round"/>
<path d="M123.137 169.521L120.834 155.198" stroke="#2E353A" stroke-width="0.194252" stroke-linecap="round" stroke-linejoin="round"/>
<path d="M142.184 166.254L139.444 149.18" stroke="#2E353A" stroke-width="0.194252" stroke-linecap="round" stroke-linejoin="round"/>
<path d="M158.961 163.228L156.624 146.563" stroke="#2E353A" stroke-width="0.194252" stroke-linecap="round" stroke-linejoin="round"/>
<path d="M175.049 160.252L171.569 140.214" stroke="#2E353A" stroke-width="0.194252" stroke-linecap="round" stroke-linejoin="round"/>
<path d="M212.857 115.457C212.857 115.457 211.142 117.183 211.03 118.08C210.918 118.976 211.815 121.677 211.815 121.677L214.516 122.125L215.704 117.43L212.857 115.457Z" fill="white" stroke="#2E353A" stroke-width="0.194252" stroke-linecap="round" stroke-linejoin="round"/>
<g style="mix-blend-mode:multiply" opacity="0.49">
<path d="M54.4087 82.4348C54.4087 82.4348 57.2554 123.403 59.8723 138.342C62.4892 153.281 67.3419 175.64 67.3419 175.64C67.3419 175.64 151.396 162.628 192.863 145.067L189.501 129.007L54.4087 82.4348Z" fill="#92A4E3"/>
</g>
<path d="M50.6095 41.9261L168.661 48.2863C168.661 48.2863 180.154 82.7205 191.591 102.165C203.028 121.61 221.89 120.343 221.89 120.343C221.89 120.343 178.63 143.996 144.935 156.588C109.868 169.683 79.4569 172.037 79.4569 172.037C79.4569 172.037 51.7582 134.201 50.6095 41.9261Z" fill="#92A4E3" stroke="#2E353A" stroke-width="0.194252" stroke-linecap="round" stroke-linejoin="round"/>
<path d="M64.1254 35.7958C61.9344 35.7958 60.3486 37.7402 59.8499 40.7886L62.0913 40.9119C62.4387 39.1524 63.128 38.0372 64.1198 38.0372C65.2742 38.0372 66.5574 39.892 66.5574 42.5593C66.5574 45.2267 65.2742 47.0871 64.1198 47.0871C63.8226 47.0871 63.5375 47.2052 63.3273 47.4153C63.1172 47.6255 62.9991 47.9106 62.9991 48.2078C62.9991 48.505 63.1172 48.7901 63.3273 49.0003C63.5375 49.2105 63.8226 49.3285 64.1198 49.3285C66.7423 49.3285 68.7988 46.353 68.7988 42.5593C68.7988 38.7657 66.7479 35.7958 64.1254 35.7958Z" fill="white" stroke="#2E353A" stroke-width="0.194252" stroke-miterlimit="10"/>
<path d="M67.3419 44.375C67.2346 44.7702 67.0959 45.1562 66.9272 45.5293" stroke="#2E353A" stroke-width="0.145689" stroke-linecap="round" stroke-linejoin="round"/>
<path d="M60.9594 39.7801C60.9594 39.7801 61.7999 36.7429 64.2823 36.911C66.2324 37.0455 67.8406 39.9426 67.5717 43.0414" stroke="#2E353A" stroke-width="0.145689" stroke-linecap="round" stroke-linejoin="round"/>
<path d="M83.5924 36.7765C81.4014 36.7765 79.8156 38.7209 79.3168 41.7693L81.5583 41.8926C81.9057 40.1331 82.595 39.0179 83.5868 39.0179C84.7412 39.0179 86.0244 40.8727 86.0244 43.5401C86.0244 46.2074 84.7412 48.0678 83.5868 48.0678C83.2896 48.0678 83.0045 48.1859 82.7943 48.396C82.5842 48.6062 82.4661 48.8913 82.4661 49.1885C82.4661 49.4858 82.5842 49.7708 82.7943 49.981C83.0045 50.1912 83.2896 50.3092 83.5868 50.3092C86.2093 50.3092 88.2658 47.3337 88.2658 43.5401C88.2658 39.7464 86.2205 36.7765 83.5924 36.7765Z" fill="white" stroke="#2E353A" stroke-width="0.194252" stroke-miterlimit="10"/>
<path d="M86.8145 45.3556C86.7072 45.7508 86.5685 46.1368 86.3998 46.5099" stroke="#2E353A" stroke-width="0.145689" stroke-linecap="round" stroke-linejoin="round"/>
<path d="M80.432 40.7607C80.432 40.7607 81.2725 37.7235 83.7549 37.8916C85.705 38.0261 87.3132 40.9232 87.0443 44.022" stroke="#2E353A" stroke-width="0.145689" stroke-linecap="round" stroke-linejoin="round"/>
<path d="M103.071 37.7571C100.88 37.7571 99.2938 39.7015 98.7951 42.7499L101.037 42.8732C101.384 41.1137 102.073 39.9985 103.065 39.9985C104.219 39.9985 105.503 41.8533 105.503 44.5207C105.503 47.188 104.219 49.0484 103.065 49.0484C102.768 49.0484 102.483 49.1665 102.273 49.3766C102.062 49.5868 101.944 49.8719 101.944 50.1691C101.944 50.4663 102.062 50.7514 102.273 50.9616C102.483 51.1718 102.768 51.2898 103.065 51.2898C105.688 51.2898 107.744 48.3143 107.744 44.5207C107.744 40.727 105.693 37.7571 103.071 37.7571Z" fill="white" stroke="#2E353A" stroke-width="0.194252" stroke-miterlimit="10"/>
<path d="M106.287 46.3363C106.18 46.7315 106.041 47.1175 105.872 47.4906" stroke="#2E353A" stroke-width="0.145689" stroke-linecap="round" stroke-linejoin="round"/>
<path d="M99.9046 41.7413C99.9046 41.7413 100.745 38.7041 103.228 38.8722C105.178 39.0067 106.786 41.9038 106.517 45.0026" stroke="#2E353A" stroke-width="0.145689" stroke-linecap="round" stroke-linejoin="round"/>
<path d="M122.543 38.7377C120.352 38.7377 118.766 40.6821 118.268 43.7305L120.509 43.8538C120.857 42.0942 121.546 40.9791 122.538 40.9791C123.692 40.9791 124.975 42.8339 124.975 45.5012C124.975 48.1686 123.692 50.029 122.538 50.029C122.24 50.029 121.955 50.147 121.745 50.3572C121.535 50.5674 121.417 50.8525 121.417 51.1497C121.417 51.4469 121.535 51.732 121.745 51.9422C121.955 52.1523 122.24 52.2704 122.538 52.2704C125.16 52.2704 127.217 49.2949 127.217 45.5012C127.217 41.7076 125.166 38.7377 122.543 38.7377Z" fill="white" stroke="#2E353A" stroke-width="0.194252" stroke-miterlimit="10"/>
<path d="M125.76 47.3169C125.652 47.7121 125.514 48.0981 125.345 48.4712" stroke="#2E353A" stroke-width="0.145689" stroke-linecap="round" stroke-linejoin="round"/>
<path d="M119.377 42.722C119.377 42.722 120.218 39.6848 122.7 39.8529C124.65 39.9874 126.258 42.8845 125.989 45.9833" stroke="#2E353A" stroke-width="0.145689" stroke-linecap="round" stroke-linejoin="round"/>
<path d="M142.369 39.6063C140.178 39.6063 138.592 41.5508 138.099 44.6048L140.34 44.728C140.693 42.9685 141.383 41.8478 142.369 41.8478C143.523 41.8478 144.812 43.7082 144.812 46.3755C144.812 49.0428 143.523 50.8976 142.369 50.8976C142.072 50.8976 141.787 51.0157 141.576 51.2259C141.366 51.4361 141.248 51.7211 141.248 52.0184C141.248 52.3156 141.366 52.6006 141.576 52.8108C141.787 53.021 142.072 53.1391 142.369 53.1391C144.997 53.1391 147.054 50.1692 147.054 46.3755C147.054 42.5818 144.997 39.6063 142.369 39.6063Z" fill="white" stroke="#2E353A" stroke-width="0.194252" stroke-miterlimit="10"/>
<path d="M145.585 48.191C145.479 48.5847 145.34 48.9689 145.171 49.3398" stroke="#2E353A" stroke-width="0.145689" stroke-linecap="round" stroke-linejoin="round"/>
<path d="M139.203 43.5961C139.203 43.5961 140.049 40.5533 142.526 40.7214C144.481 40.8559 146.084 43.7586 145.821 46.8574" stroke="#2E353A" stroke-width="0.145689" stroke-linecap="round" stroke-linejoin="round"/>
<path d="M161.416 40.6542C159.225 40.6542 157.639 42.5986 157.146 45.647L159.387 45.7759C159.74 44.0164 160.429 42.8956 161.416 42.8956C162.57 42.8956 163.859 44.756 163.859 47.4178C163.859 50.0795 162.57 51.9455 161.416 51.9455C161.118 51.9455 160.833 52.0636 160.623 52.2737C160.413 52.4839 160.295 52.769 160.295 53.0662C160.295 53.3634 160.413 53.6485 160.623 53.8587C160.833 54.0689 161.118 54.1869 161.416 54.1869C164.044 54.1869 166.1 51.2114 166.1 47.4178C166.1 43.6241 164.044 40.6542 161.416 40.6542Z" fill="white" stroke="#2E353A" stroke-width="0.194252" stroke-miterlimit="10"/>
<path d="M164.632 49.2053C164.527 49.6011 164.388 49.9872 164.217 50.3597" stroke="#2E353A" stroke-width="0.145689" stroke-linecap="round" stroke-linejoin="round"/>
<path d="M158.25 44.6159C158.25 44.6159 159.096 41.5731 161.572 41.7412C163.528 41.8757 165.131 44.7728 164.867 47.8716" stroke="#2E353A" stroke-width="0.145689" stroke-linecap="round" stroke-linejoin="round"/>
<path d="M215.704 117.424C215.704 117.424 216.824 118.959 216.824 119.615C216.824 120.271 215.289 121.369 215.289 122.899C215.289 124.428 213.316 124.019 213.098 122.899C212.879 121.778 213.535 120.271 213.535 120.271C213.535 120.271 212.622 119.71 212.414 117.738C212.207 115.765 213.983 116.326 213.983 116.326L215.704 117.424Z" fill="white" stroke="#2E353A" stroke-width="0.194252" stroke-linecap="round" stroke-linejoin="round"/>
<path d="M187.685 102.255C179.566 88.4474 171.037 66.6437 168.005 58.6193L62.506 54.3438C62.4387 132.318 86.0412 164.533 86.0412 164.533C86.0412 164.533 112.911 162.455 143.899 150.877C173.676 139.754 209.192 121.083 209.192 121.083C209.192 121.083 197.789 119.441 187.685 102.255Z" fill="white" stroke="#2E353A" stroke-width="0.194252" stroke-linecap="round" stroke-linejoin="round"/>
<path d="M168.005 58.6193L62.506 54.3438C62.506 62.0151 62.7245 69.2326 63.128 76.0298L174.539 74.9875C171.653 68.1119 169.328 62.088 168.005 58.6193Z" fill="#2E353A" stroke="#2E353A" stroke-width="0.194252" stroke-linecap="round" stroke-linejoin="round"/>
<path d="M169.871 81.8633L174.859 81.6896" stroke="#2E353A" stroke-width="0.582756" stroke-linecap="round" stroke-linejoin="round"/>
<path d="M155.212 82.3619L166.134 81.9865" stroke="#2E353A" stroke-width="0.582756" stroke-linecap="round" stroke-linejoin="round"/>
<path d="M137.466 82.9615L151.503 82.4852" stroke="#2E353A" stroke-width="0.582756" stroke-linecap="round" stroke-linejoin="round"/>
<path d="M119.411 83.5723L134.367 83.068" stroke="#2E353A" stroke-width="0.582756" stroke-linecap="round" stroke-linejoin="round"/>
<path d="M101.956 84.1663L115.668 83.7012" stroke="#2E353A" stroke-width="0.582756" stroke-linecap="round" stroke-linejoin="round"/>
<path d="M83.5644 84.794L97.2877 84.3232" stroke="#2E353A" stroke-width="0.582756" stroke-linecap="round" stroke-linejoin="round"/>
<path d="M67.3755 85.3431L80.1462 84.906" stroke="#2E353A" stroke-width="0.582756" stroke-linecap="round" stroke-linejoin="round"/>
<path d="M65.2966 97.3628L181.364 90.291" stroke="#2E353A" stroke-width="0.194252" stroke-linecap="round" stroke-linejoin="round"/>
<path d="M83.6373 96.3654C83.6373 96.3654 85.5425 127.23 105.889 161.491" stroke="#2E353A" stroke-width="0.194252" stroke-linecap="round" stroke-linejoin="round"/>
<path d="M102.365 95.1271C102.365 95.1271 104.511 130.43 126.819 156.279" stroke="#2E353A" stroke-width="0.194252" stroke-linecap="round" stroke-linejoin="round"/>
<path d="M119.321 94.0847C119.321 94.0847 120.442 126.586 145.518 149.942" stroke="#2E353A" stroke-width="0.194252" stroke-linecap="round" stroke-linejoin="round"/>
<path d="M136.9 93.3282C136.9 93.3282 139.668 129.46 163.937 142.186" stroke="#2E353A" stroke-width="0.194252" stroke-linecap="round" stroke-linejoin="round"/>
<path d="M155.319 91.8768C155.319 91.8768 157.269 119.206 182.093 134.173" stroke="#2E353A" stroke-width="0.194252" stroke-linecap="round" stroke-linejoin="round"/>
<path d="M169.821 90.9916C169.821 90.9916 176.501 119.01 195.189 128.082" stroke="#2E353A" stroke-width="0.194252" stroke-linecap="round" stroke-linejoin="round"/>
<path d="M67.8406 113.283L186.391 100.243" stroke="#2E353A" stroke-width="0.194252" stroke-linecap="round" stroke-linejoin="round"/>
<path d="M70.9338 127.23C70.9338 127.23 96.2454 126.238 191.905 108.609" stroke="#2E353A" stroke-width="0.194252" stroke-linecap="round" stroke-linejoin="round"/>
<path d="M75.3999 141.996C75.3999 141.996 100.056 144.798 196.651 114.039" stroke="#2E353A" stroke-width="0.194252" stroke-linecap="round" stroke-linejoin="round"/>
<path d="M80.7346 154.879C80.7346 154.879 101.289 161.687 202.255 118.455" stroke="#2E353A" stroke-width="0.194252" stroke-linecap="round" stroke-linejoin="round"/>
<path d="M108.075 69.5969L70.0708 69.087C69.763 69.0824 69.4672 68.9662 69.2384 68.7601C69.0097 68.554 68.8634 68.272 68.8268 67.9662L68.5018 64.8954C68.4828 64.7187 68.5015 64.54 68.5567 64.371C68.6119 64.2021 68.7023 64.0467 68.822 63.9154C68.9418 63.784 69.088 63.6795 69.2512 63.6089C69.4143 63.5383 69.5905 63.5031 69.7683 63.5058L107.313 64.1558C107.59 64.1606 107.858 64.2565 108.076 64.4286C108.294 64.6007 108.449 64.8395 108.517 65.1084L109.279 68.0279C109.327 68.2125 109.332 68.4056 109.294 68.5924C109.256 68.7792 109.176 68.9549 109.06 69.1062C108.944 69.2574 108.794 69.3802 108.624 69.4652C108.453 69.5503 108.265 69.5953 108.075 69.5969Z" fill="white"/>
</svg>
