<svg width="451" height="413" viewBox="0 0 451 413" fill="none" xmlns="http://www.w3.org/2000/svg">
<path d="M451 362.938H0V363.215H451V362.938Z" fill="#EBEBEB"/>
<path d="M213.774 313.497H39.6067C38.2423 313.494 36.9346 312.826 35.9707 311.639C35.0067 310.452 34.4653 308.844 34.4653 307.167V6.27437C34.4772 4.60715 35.0238 3.01301 35.9865 1.83821C36.9492 0.663419 38.2501 0.00285604 39.6067 0H213.774C215.14 0 216.45 0.666888 217.416 1.85396C218.382 3.04102 218.924 4.65103 218.924 6.3298V307.167C218.924 308.846 218.382 310.456 217.416 311.643C216.45 312.83 215.14 313.497 213.774 313.497ZM39.6067 0.22171C38.3021 0.224647 37.0518 0.86363 36.1301 1.99841C35.2085 3.13318 34.6908 4.67102 34.6908 6.27437V307.167C34.6908 308.77 35.2085 310.308 36.1301 311.443C37.0518 312.578 38.3021 313.217 39.6067 313.22H213.774C215.079 313.217 216.331 312.578 217.254 311.444C218.177 310.309 218.696 308.771 218.699 307.167V6.27437C218.696 4.67001 218.177 3.13219 217.254 1.99773C216.331 0.86327 215.079 0.22464 213.774 0.22171H39.6067Z" fill="#EBEBEB"/>
<path d="M408.886 313.497H234.709C233.344 313.494 232.036 312.826 231.07 311.64C230.105 310.453 229.561 308.845 229.559 307.167V6.27437C229.573 4.60614 230.122 3.01201 231.086 1.83752C232.05 0.663031 233.352 0.0028249 234.709 0H408.886C410.241 0.00576942 411.539 0.667621 412.5 1.8421C413.461 3.01658 414.006 4.60906 414.018 6.27437V307.167C414.018 308.842 413.478 310.449 412.516 311.635C411.554 312.822 410.248 313.491 408.886 313.497ZM234.709 0.22171C233.404 0.22464 232.153 0.86327 231.23 1.99773C230.307 3.13219 229.787 4.67001 229.785 6.27437V307.167C229.787 308.771 230.307 310.309 231.23 311.444C232.153 312.578 233.404 313.217 234.709 313.22H408.886C410.191 313.217 411.442 312.578 412.365 311.444C413.289 310.309 413.808 308.771 413.811 307.167V6.27437C413.808 4.67001 413.289 3.13219 412.365 1.99773C411.442 0.86327 410.191 0.22464 408.886 0.22171H234.709Z" fill="#EBEBEB"/>
<path d="M69.7065 373.491H46.2545V373.769H69.7065V373.491Z" fill="#EBEBEB"/>
<path d="M171.542 370.487H130.925V370.764H171.542V370.487Z" fill="#EBEBEB"/>
<path d="M125.441 383.79H70.6085V384.067H125.441V383.79Z" fill="#EBEBEB"/>
<path d="M404.746 381.927H387.4V382.205H404.746V381.927Z" fill="#EBEBEB"/>
<path d="M379.363 381.927H329.492V382.205H379.363V381.927Z" fill="#EBEBEB"/>
<path d="M299.031 377.249H231.859V377.526H299.031V377.249Z" fill="#EBEBEB"/>
<path d="M238.913 243.337H200.984V362.938H238.913V243.337Z" fill="#F0F0F0"/>
<path d="M65.2686 362.938H200.984V243.337H65.2686V362.938Z" fill="#F5F5F5"/>
<path d="M73.5852 351.287H96.2344V326.932H73.5852V351.287Z" fill="white"/>
<path d="M73.5852 317.998H96.2344V293.643H73.5852V317.998Z" fill="#EBEBEB"/>
<g style="mix-blend-mode:multiply" opacity="0.7">
<path d="M238.904 258.779H64.8629V263.579H238.904V258.779Z" fill="#BABFEC"/>
</g>
<path d="M241.005 241.02H200.984V260.386H241.005V241.02Z" fill="#F0F0F0"/>
<path d="M63.158 260.386H200.975V241.02L63.158 241.02V260.386Z" fill="#F5F5F5"/>
<path d="M224.535 204.46H195.057V241.319H224.535V204.46Z" fill="#F0F0F0"/>
<path d="M92.41 241.308L195.049 241.308V204.449H92.41V241.308Z" fill="#F5F5F5"/>
<g style="mix-blend-mode:multiply" opacity="0.7">
<path d="M224.535 210.014H92.1122V212.996H224.535V210.014Z" fill="#BABFEC"/>
</g>
<path d="M226.158 202.653H195.057V211.267H226.158V202.653Z" fill="#F0F0F0"/>
<path d="M90.7953 211.267L195.057 211.267V202.653L90.7953 202.653V211.267Z" fill="#F5F5F5"/>
<path d="M259.244 362.938H288.099V183.487H259.244V362.938Z" fill="#BABFEC"/>
<path d="M265.423 362.938H259.244V350.212H271.899L265.423 362.938Z" fill="#F0F0F0"/>
<path d="M355.505 362.938H384.36V183.487H355.505V362.938Z" fill="#BABFEC"/>
<path d="M259.244 360.366H360.89V183.487L259.244 183.487V360.366Z" fill="#F0F0F0"/>
<path d="M264.042 239.845H356.101V191.335H264.042V239.845Z" fill="#BABFEC"/>
<path d="M316.115 214.548C316.115 216.019 315.76 217.457 315.095 218.681C314.43 219.904 313.485 220.857 312.379 221.42C311.273 221.983 310.056 222.13 308.882 221.843C307.708 221.556 306.629 220.848 305.783 219.808C304.936 218.767 304.36 217.442 304.126 215.999C303.893 214.556 304.013 213.061 304.471 211.702C304.929 210.342 305.705 209.181 306.7 208.363C307.695 207.546 308.865 207.11 310.063 207.11C310.858 207.108 311.645 207.3 312.38 207.673C313.115 208.046 313.783 208.594 314.345 209.285C314.907 209.976 315.353 210.797 315.657 211.7C315.96 212.603 316.116 213.571 316.115 214.548Z" fill="#FAFAFA"/>
<path d="M354.711 362.938H360.89V350.212H348.235L354.711 362.938Z" fill="#F0F0F0"/>
<path d="M356.092 247.671H264.033V352.529H356.092V247.671Z" fill="#BABFEC"/>
<path d="M343.382 270.74C346.725 270.74 349.435 267.41 349.435 263.302C349.435 259.194 346.725 255.864 343.382 255.864C340.04 255.864 337.33 259.194 337.33 263.302C337.33 267.41 340.04 270.74 343.382 270.74Z" fill="#FAFAFA"/>
<path d="M374.555 163.522V18.3243L77.7614 18.3243V163.522L374.555 163.522Z" fill="#BABFEC"/>
<path d="M373.248 163.511V18.3132L76.4536 18.3132V163.511L373.248 163.511Z" fill="#F0F0F0"/>
<path d="M365.698 27.6028H84.0032V154.232H365.698V27.6028Z" fill="white"/>
<path d="M116.845 80.3696L106.941 101.465H126.758L116.845 80.3696Z" fill="#BABFEC"/>
<path d="M168.268 80.9682H152.086V100.856H168.268V80.9682Z" fill="#BABFEC"/>
<path d="M203.509 78.1969L192.622 87.9077L196.78 103.638H210.229L214.387 87.9077L203.509 78.1969Z" fill="#BABFEC"/>
<path d="M252.56 78.7401H241.114L235.386 90.9119L241.114 103.095H252.56L258.279 90.9119L252.56 78.7401Z" fill="#BABFEC"/>
<path d="M290.164 77.5428L281.216 82.8417L279.007 94.7475L285.194 104.281H295.125L301.322 94.7475L299.112 82.8417L290.164 77.5428Z" fill="#BABFEC"/>
<path d="M337.871 77.9197H329.113L322.916 85.5354V96.2994L329.113 103.915H337.871L344.059 96.2994V85.5354L337.871 77.9197Z" fill="#BABFEC"/>
<path d="M225.5 413C322.088 413 400.389 407.382 400.389 400.451C400.389 393.521 322.088 387.903 225.5 387.903C128.912 387.903 50.6112 393.521 50.6112 400.451C50.6112 407.382 128.912 413 225.5 413Z" fill="#F5F5F5"/>
<path d="M215.948 82.5978H364.462C365.205 82.586 365.942 82.7643 366.625 83.1212C367.309 83.4781 367.925 84.0058 368.434 84.6709C368.943 85.336 369.334 86.1239 369.582 86.9846C369.83 87.8452 369.929 88.7598 369.874 89.6703L357.76 329.482C357.643 331.388 356.951 333.171 355.82 334.481C354.688 335.792 353.199 336.535 351.645 336.566H203.121C202.38 336.568 201.646 336.382 200.966 336.021C200.285 335.66 199.672 335.131 199.165 334.467C198.657 333.803 198.266 333.018 198.016 332.16C197.765 331.303 197.661 330.391 197.709 329.482L209.814 89.6703C209.935 87.764 210.632 85.9821 211.766 84.6738C212.901 83.3655 214.392 82.6251 215.948 82.5978Z" fill="#7C5BDB"/>
<path opacity="0.4" d="M215.948 82.5978H364.462C365.205 82.586 365.942 82.7643 366.625 83.1212C367.309 83.4781 367.925 84.0058 368.434 84.6709C368.943 85.336 369.334 86.1239 369.582 86.9846C369.83 87.8452 369.929 88.7598 369.874 89.6703L357.76 329.482C357.643 331.388 356.951 333.171 355.82 334.481C354.688 335.792 353.199 336.535 351.645 336.566H203.121C202.38 336.568 201.646 336.382 200.966 336.021C200.285 335.66 199.672 335.131 199.165 334.467C198.657 333.803 198.266 333.018 198.016 332.16C197.765 331.303 197.661 330.391 197.709 329.482L209.814 89.6703C209.935 87.764 210.632 85.9821 211.766 84.6738C212.901 83.3655 214.392 82.6251 215.948 82.5978Z" fill="black"/>
<path d="M212.538 82.5978H361.053C361.796 82.586 362.532 82.7643 363.216 83.1212C363.9 83.4781 364.516 84.0058 365.025 84.6709C365.534 85.336 365.924 86.1239 366.172 86.9846C366.42 87.8452 366.52 88.7598 366.465 89.6703L354.351 329.482C354.234 331.389 353.541 333.174 352.407 334.485C351.274 335.796 349.782 336.538 348.226 336.566H199.712C198.971 336.568 198.237 336.382 197.556 336.021C196.876 335.66 196.263 335.131 195.755 334.467C195.248 333.803 194.857 333.018 194.606 332.16C194.356 331.303 194.252 330.391 194.3 329.482L206.405 89.6703C206.524 87.7631 207.22 85.9797 208.355 84.6709C209.49 83.3621 210.982 82.6226 212.538 82.5978Z" fill="#7C5BDB"/>
<path opacity="0.4" d="M202.355 323.618L346.918 325.746L358.644 93.4837H213.972L202.355 323.618Z" fill="black"/>
<path d="M198.133 321.268H344.564C352.628 230.467 355.108 181.447 356.209 90.6902H209.778C208.678 181.447 206.206 230.467 198.133 321.268Z" fill="white"/>
<path opacity="0.3" d="M338.692 153.811H313.481C313.227 153.815 312.975 153.752 312.742 153.628C312.509 153.504 312.3 153.321 312.128 153.09C311.954 152.863 311.82 152.594 311.733 152.3C311.646 152.007 311.609 151.695 311.623 151.383L313.183 120.41C313.213 119.829 313.422 119.283 313.767 118.884C314.112 118.485 314.568 118.261 315.042 118.26H340.298C340.551 118.261 340.802 118.325 341.035 118.449C341.268 118.574 341.478 118.755 341.652 118.982C341.826 119.209 341.96 119.478 342.047 119.771C342.133 120.064 342.17 120.376 342.156 120.687L340.586 151.671C340.578 151.965 340.523 152.255 340.423 152.522C340.323 152.79 340.18 153.03 340.004 153.229C339.828 153.428 339.621 153.582 339.396 153.682C339.17 153.782 338.931 153.826 338.692 153.811ZM315.466 149.244H336.942L338.25 122.838H316.791L315.466 149.244Z" fill="#7C5BDB"/>
<path opacity="0.3" d="M336.302 201.002H311.1C310.846 201.001 310.596 200.936 310.363 200.812C310.13 200.689 309.921 200.508 309.747 200.281C309.572 200.054 309.436 199.786 309.349 199.492C309.263 199.198 309.226 198.886 309.242 198.574L310.802 167.59C310.832 167.01 311.041 166.465 311.386 166.068C311.732 165.67 312.187 165.449 312.66 165.451H337.871C338.125 165.447 338.377 165.509 338.61 165.633C338.844 165.757 339.053 165.941 339.224 166.171C339.398 166.399 339.533 166.668 339.619 166.961C339.706 167.254 339.744 167.566 339.729 167.878L338.16 198.851C338.132 199.433 337.924 199.981 337.579 200.38C337.233 200.78 336.776 201.003 336.302 201.002ZM313.075 196.423H334.552L335.887 170.018H314.41L313.075 196.423Z" fill="#7C5BDB"/>
<path opacity="0.3" d="M333.92 248.181H308.718C308.463 248.183 308.211 248.119 307.976 247.995C307.742 247.871 307.531 247.689 307.356 247.461C307.181 247.235 307.045 246.967 306.96 246.672C306.874 246.378 306.841 246.065 306.86 245.754L308.421 214.781C308.451 214.199 308.659 213.654 309.004 213.254C309.349 212.855 309.805 212.632 310.279 212.63H335.49C335.743 212.631 335.994 212.696 336.227 212.819C336.459 212.943 336.669 213.124 336.843 213.351C337.015 213.58 337.149 213.849 337.236 214.142C337.323 214.435 337.361 214.746 337.348 215.058L335.778 246.097C335.738 246.668 335.524 247.199 335.18 247.585C334.836 247.971 334.386 248.184 333.92 248.181ZM310.694 243.614H332.17L333.505 217.209H312.029L310.694 243.614Z" fill="#7C5BDB"/>
<path opacity="0.3" d="M331.539 295.372H306.337C306.082 295.371 305.831 295.306 305.596 295.182C305.362 295.059 305.151 294.878 304.975 294.652C304.799 294.426 304.664 294.157 304.579 293.863C304.493 293.569 304.459 293.256 304.479 292.944L306.04 261.961C306.072 261.381 306.281 260.838 306.626 260.441C306.971 260.044 307.425 259.823 307.898 259.821H333.109C333.363 259.817 333.615 259.88 333.848 260.004C334.081 260.128 334.29 260.311 334.462 260.542C334.635 260.769 334.77 261.038 334.857 261.332C334.944 261.625 334.981 261.937 334.967 262.249L333.397 293.222C333.367 293.803 333.159 294.349 332.814 294.748C332.469 295.147 332.013 295.371 331.539 295.372ZM308.313 290.794H329.789L331.124 264.388H309.648L308.313 290.794Z" fill="#7C5BDB"/>
<path opacity="0.3" d="M234.412 131.984H291.499C292.349 131.967 293.163 131.562 293.782 130.846C294.401 130.13 294.781 129.156 294.846 128.115C294.876 127.617 294.821 127.117 294.686 126.646C294.55 126.176 294.337 125.745 294.058 125.381C293.78 125.017 293.444 124.729 293.07 124.533C292.696 124.338 292.293 124.24 291.887 124.246H234.809C233.958 124.257 233.141 124.661 232.521 125.378C231.901 126.095 231.523 127.071 231.462 128.115C231.432 128.612 231.487 129.111 231.622 129.581C231.756 130.05 231.969 130.481 232.247 130.844C232.524 131.208 232.859 131.497 233.232 131.693C233.605 131.889 234.006 131.988 234.412 131.984Z" fill="#7C5BDB"/>
<path opacity="0.3" d="M244.442 147.836H290.669C291.519 147.819 292.333 147.414 292.952 146.698C293.571 145.982 293.951 145.008 294.016 143.967C294.047 143.469 293.994 142.969 293.859 142.498C293.725 142.027 293.512 141.595 293.235 141.23C292.958 140.865 292.622 140.575 292.248 140.378C291.875 140.182 291.472 140.082 291.066 140.087H244.857C244.006 140.103 243.19 140.511 242.571 141.229C241.952 141.947 241.573 142.923 241.51 143.967C241.481 144.462 241.534 144.959 241.668 145.427C241.802 145.896 242.013 146.325 242.289 146.688C242.564 147.051 242.897 147.341 243.268 147.538C243.638 147.736 244.038 147.837 244.442 147.836Z" fill="#7C5BDB"/>
<path opacity="0.3" d="M231.625 187.278H288.712C289.118 187.273 289.519 187.372 289.892 187.568C290.265 187.765 290.6 188.054 290.877 188.417C291.155 188.781 291.367 189.211 291.502 189.681C291.637 190.151 291.692 190.65 291.662 191.147C291.597 192.188 291.217 193.162 290.598 193.878C289.979 194.593 289.165 194.999 288.315 195.015H231.228C230.822 195.02 230.421 194.921 230.048 194.725C229.675 194.529 229.34 194.24 229.062 193.876C228.785 193.513 228.572 193.082 228.437 192.612C228.302 192.143 228.248 191.643 228.278 191.147C228.343 190.105 228.723 189.131 229.342 188.415C229.961 187.7 230.775 187.294 231.625 187.278Z" fill="#7C5BDB"/>
<path opacity="0.3" d="M243.278 171.426H289.542C289.948 171.42 290.351 171.517 290.725 171.713C291.098 171.908 291.435 172.197 291.713 172.561C291.991 172.925 292.205 173.355 292.341 173.826C292.476 174.297 292.531 174.797 292.501 175.294C292.438 176.338 292.059 177.315 291.44 178.033C290.821 178.751 290.005 179.158 289.154 179.174H242.891C242.484 179.18 242.08 179.082 241.706 178.886C241.331 178.69 240.994 178.4 240.716 178.035C240.437 177.67 240.224 177.238 240.089 176.766C239.954 176.294 239.901 175.793 239.932 175.294C239.997 174.253 240.376 173.279 240.995 172.563C241.614 171.848 242.429 171.442 243.278 171.426Z" fill="#7C5BDB"/>
<path opacity="0.3" d="M229.649 226.354H286.737C287.587 226.338 288.401 225.932 289.02 225.216C289.639 224.501 290.018 223.527 290.083 222.485C290.113 221.987 290.059 221.487 289.923 221.017C289.788 220.546 289.574 220.115 289.296 219.752C289.018 219.388 288.681 219.099 288.307 218.904C287.933 218.708 287.531 218.61 287.125 218.616H230.01C229.16 218.633 228.346 219.038 227.727 219.754C227.108 220.47 226.729 221.444 226.664 222.485C226.633 222.986 226.688 223.489 226.826 223.962C226.963 224.435 227.179 224.867 227.46 225.231C227.741 225.596 228.081 225.884 228.458 226.077C228.835 226.27 229.241 226.365 229.649 226.354Z" fill="#7C5BDB"/>
<path opacity="0.3" d="M262.969 242.206H285.934C286.784 242.19 287.598 241.784 288.217 241.069C288.836 240.353 289.215 239.379 289.28 238.337C289.31 237.839 289.256 237.339 289.12 236.867C288.985 236.396 288.772 235.965 288.494 235.6C288.215 235.235 287.879 234.946 287.505 234.749C287.131 234.552 286.728 234.453 286.322 234.458H263.384C262.533 234.477 261.719 234.885 261.1 235.602C260.481 236.32 260.103 237.295 260.038 238.337C260.008 238.832 260.062 239.33 260.195 239.798C260.329 240.266 260.541 240.696 260.816 241.059C261.091 241.422 261.424 241.711 261.795 241.909C262.165 242.106 262.565 242.208 262.969 242.206Z" fill="#7C5BDB"/>
<path opacity="0.3" d="M239.707 242.206H251.82C252.67 242.19 253.484 241.784 254.103 241.069C254.722 240.353 255.102 239.379 255.167 238.337C255.197 237.839 255.142 237.339 255.007 236.867C254.871 236.396 254.658 235.965 254.38 235.6C254.102 235.235 253.765 234.946 253.392 234.749C253.018 234.552 252.615 234.453 252.208 234.458H240.094C239.244 234.477 238.429 234.885 237.811 235.602C237.192 236.32 236.813 237.295 236.748 238.337C236.718 238.835 236.772 239.335 236.908 239.806C237.043 240.276 237.257 240.707 237.535 241.071C237.813 241.435 238.15 241.724 238.524 241.919C238.898 242.114 239.3 242.212 239.707 242.206Z" fill="#7C5BDB"/>
<path opacity="0.3" d="M227.304 273.545H284.391C285.241 273.529 286.055 273.123 286.674 272.407C287.294 271.691 287.673 270.717 287.738 269.676C287.768 269.178 287.713 268.677 287.578 268.206C287.442 267.735 287.229 267.303 286.951 266.939C286.673 266.574 286.336 266.284 285.963 266.088C285.589 265.891 285.186 265.792 284.779 265.796H227.656C226.804 265.813 225.989 266.22 225.37 266.938C224.75 267.656 224.372 268.633 224.309 269.676C224.279 270.178 224.334 270.682 224.472 271.155C224.61 271.629 224.827 272.062 225.109 272.426C225.391 272.791 225.732 273.079 226.11 273.271C226.488 273.464 226.895 273.557 227.304 273.545Z" fill="#7C5BDB"/>
<path opacity="0.3" d="M237.325 289.397H283.553C284.403 289.378 285.218 288.97 285.836 288.252C286.455 287.535 286.834 286.56 286.899 285.517C286.929 285.019 286.875 284.519 286.739 284.049C286.604 283.578 286.39 283.147 286.112 282.783C285.834 282.42 285.497 282.131 285.123 281.936C284.75 281.74 284.347 281.642 283.941 281.648H237.713C236.863 281.665 236.049 282.07 235.43 282.786C234.811 283.502 234.432 284.476 234.367 285.517C234.337 286.015 234.391 286.516 234.527 286.987C234.662 287.458 234.876 287.89 235.154 288.255C235.432 288.619 235.768 288.909 236.142 289.106C236.516 289.302 236.919 289.401 237.325 289.397Z" fill="#7C5BDB"/>
<path d="M324.819 145.33C324.445 145.334 324.08 145.194 323.773 144.931L314.058 136.784C313.687 136.423 313.442 135.903 313.37 135.329C313.299 134.755 313.408 134.168 313.675 133.689C313.941 133.209 314.346 132.871 314.807 132.744C315.269 132.617 315.752 132.71 316.16 133.003L324.458 139.976C327.489 135.487 336.13 123.348 343.319 119.368C343.542 119.246 343.783 119.179 344.028 119.171C344.272 119.163 344.515 119.214 344.743 119.322C344.972 119.429 345.18 119.591 345.358 119.798C345.535 120.005 345.678 120.252 345.777 120.527C345.877 120.801 345.931 121.097 345.938 121.397C345.944 121.698 345.902 121.996 345.815 122.277C345.727 122.557 345.596 122.814 345.428 123.032C345.259 123.25 345.058 123.425 344.835 123.547C336.987 127.838 326.389 144.299 326.289 144.466C326.113 144.736 325.889 144.955 325.635 145.105C325.38 145.254 325.101 145.331 324.819 145.33Z" fill="#7C5BDB"/>
<path d="M320.3 191.601C319.817 191.603 319.353 191.377 319.001 190.969L310.55 180.992C310.191 180.57 309.983 179.991 309.972 179.38C309.961 178.77 310.148 178.18 310.491 177.739C310.834 177.298 311.306 177.042 311.803 177.029C312.299 177.015 312.78 177.245 313.138 177.667L320.354 186.191C323.917 182.278 333.884 171.858 341.425 169.33C341.662 169.251 341.909 169.23 342.153 169.268C342.396 169.306 342.632 169.403 342.845 169.553C343.058 169.702 343.245 169.902 343.395 170.141C343.546 170.38 343.656 170.652 343.721 170.943C343.785 171.235 343.802 171.538 343.771 171.838C343.74 172.137 343.662 172.426 343.54 172.688C343.418 172.95 343.255 173.18 343.061 173.365C342.867 173.549 342.645 173.685 342.408 173.765C334.182 176.525 321.725 190.869 321.599 191.014C321.425 191.212 321.22 191.366 320.997 191.467C320.774 191.567 320.538 191.613 320.3 191.601Z" fill="#7C5BDB"/>
<path opacity="0.4" d="M304.488 96.1442H307.194C307.919 96.153 308.638 95.9862 309.311 95.6533C309.983 95.3205 310.596 94.8281 311.113 94.2043C311.631 93.5805 312.044 92.8375 312.328 92.0177C312.612 91.1979 312.761 90.3174 312.769 89.4264V83.2407C312.769 83.151 312.754 83.0622 312.726 82.9794C312.698 82.8966 312.656 82.8216 312.604 82.7586C312.552 82.6957 312.49 82.6461 312.423 82.6128C312.355 82.5795 312.282 82.5631 312.209 82.5645H304.56C304.396 82.5674 304.239 82.6489 304.123 82.7917C304.007 82.9346 303.94 83.1275 303.938 83.3294L303.974 95.468C303.974 95.6399 304.027 95.8055 304.122 95.9311C304.218 96.0568 304.349 96.1329 304.488 96.1442Z" fill="black"/>
<path d="M262.978 71.3793H309.034C309.692 71.3562 310.346 71.5129 310.949 71.8381C311.551 72.1632 312.088 72.6488 312.519 73.2596C312.951 73.8705 313.266 74.5915 313.444 75.3705C313.621 76.1495 313.655 76.9672 313.544 77.7645L312.164 90.3687C311.94 92.1108 311.228 93.7021 310.151 94.8678C309.074 96.0336 307.7 96.7007 306.265 96.7539H260.191C259.533 96.777 258.879 96.6203 258.276 96.2951C257.674 95.97 257.137 95.4844 256.706 94.8736C256.274 94.2627 255.959 93.5417 255.781 92.7627C255.604 91.9837 255.57 91.166 255.681 90.3687L257.07 77.7645C257.294 76.0206 258.008 74.4279 259.087 73.2619C260.166 72.0959 261.542 71.43 262.978 71.3793Z" fill="#7C5BDB"/>
<path opacity="0.6" d="M262.978 71.3793H309.034C309.692 71.3562 310.346 71.5129 310.949 71.8381C311.551 72.1632 312.088 72.6488 312.519 73.2596C312.951 73.8705 313.266 74.5915 313.444 75.3705C313.621 76.1495 313.655 76.9672 313.544 77.7645L312.164 90.3687C311.94 92.1108 311.228 93.7021 310.151 94.8678C309.074 96.0336 307.7 96.7007 306.265 96.7539H260.191C259.533 96.777 258.879 96.6203 258.276 96.2951C257.674 95.97 257.137 95.4844 256.706 94.8736C256.274 94.2627 255.959 93.5417 255.781 92.7627C255.604 91.9837 255.57 91.166 255.681 90.3687L257.07 77.7645C257.294 76.0206 258.008 74.4279 259.087 73.2619C260.166 72.0959 261.542 71.43 262.978 71.3793Z" fill="white"/>
<path opacity="0.5" d="M307.844 77.4763H287.098C286.905 77.4953 286.712 77.4652 286.529 77.3878C286.347 77.3103 286.179 77.1873 286.037 77.0264C285.895 76.8655 285.782 76.6702 285.705 76.4529C285.627 76.2356 285.587 76.0009 285.587 75.7636C285.587 75.5263 285.627 75.2916 285.705 75.0743C285.782 74.857 285.895 74.6617 286.037 74.5008C286.179 74.3399 286.347 74.2169 286.529 74.1394C286.712 74.062 286.905 74.0318 287.098 74.0509H307.844C308.194 74.0855 308.521 74.281 308.759 74.5984C308.997 74.9158 309.13 75.3318 309.13 75.7636C309.13 76.1954 308.997 76.6114 308.759 76.9288C308.521 77.2462 308.194 77.4416 307.844 77.4763Z" fill="white"/>
<path opacity="0.5" d="M280.197 77.4763H278.014C277.822 77.4953 277.628 77.4652 277.446 77.3878C277.263 77.3103 277.096 77.1873 276.954 77.0264C276.812 76.8655 276.699 76.6702 276.622 76.4529C276.544 76.2356 276.504 76.0009 276.504 75.7636C276.504 75.5263 276.544 75.2916 276.622 75.0743C276.699 74.857 276.812 74.6617 276.954 74.5008C277.096 74.3399 277.263 74.2169 277.446 74.1394C277.628 74.062 277.822 74.0318 278.014 74.0509H280.197C280.39 74.0318 280.583 74.062 280.766 74.1394C280.948 74.2169 281.116 74.3399 281.258 74.5008C281.4 74.6617 281.513 74.857 281.59 75.0743C281.668 75.2916 281.708 75.5263 281.708 75.7636C281.708 76.0009 281.668 76.2356 281.59 76.4529C281.513 76.6702 281.4 76.8655 281.258 77.0264C281.116 77.1873 280.948 77.3103 280.766 77.3878C280.583 77.4652 280.39 77.4953 280.197 77.4763Z" fill="white"/>
<path d="M152.853 323.308L161.756 325.403L182.799 203.773L169.729 200.702L152.853 323.308Z" fill="#7C5BDB"/>
<path d="M184.143 119.324L194.805 115.012L195.544 110.256L185.613 109.879L184.143 119.324Z" fill="#2C3234"/>
<path d="M183.873 116.553L196.014 111.697L183.539 199.006L170.469 195.947L183.873 116.553Z" fill="#7C5BDB"/>
<path d="M171.218 200.844L183.196 203.698L183.945 198.951L171.967 196.097L171.218 200.844Z" fill="#2C3234"/>
<path d="M154.458 337.708C154.341 338.428 154.585 339.093 155 339.193C155.415 339.293 155.847 338.783 155.956 338.084C156.064 337.386 155.82 336.699 155.405 336.599C154.991 336.499 154.567 336.998 154.458 337.708Z" fill="#7C5BDB"/>
<path d="M153.845 337.796L156.497 338.417L161.756 325.403L152.853 323.308L153.845 337.796Z" fill="#2C3234"/>
<path d="M169.883 173.842C169.694 173.841 169.509 173.782 169.344 173.67C169.179 173.558 169.04 173.397 168.938 173.202C168.837 173.007 168.777 172.784 168.764 172.553C168.751 172.322 168.785 172.091 168.863 171.88C174.456 157.148 178.993 126.374 179.606 119.058C179.694 117.997 180.011 116.983 180.525 116.124C181.039 115.264 181.731 114.589 182.529 114.169L185.478 112.606C185.613 112.533 185.759 112.494 185.906 112.49C186.053 112.486 186.2 112.518 186.337 112.584C186.475 112.65 186.6 112.749 186.707 112.874C186.813 113 186.898 113.15 186.957 113.316C187.017 113.482 187.049 113.66 187.052 113.841C187.055 114.023 187.029 114.203 186.975 114.372C186.922 114.54 186.841 114.695 186.739 114.825C186.637 114.956 186.515 115.061 186.38 115.134L183.431 116.697C183 116.926 182.626 117.292 182.349 117.758C182.071 118.224 181.9 118.772 181.852 119.346C181.212 127.028 176.711 157.79 170.92 173.044C170.828 173.286 170.681 173.49 170.497 173.631C170.313 173.773 170.1 173.846 169.883 173.842Z" fill="#2C3234"/>
<path d="M128.327 115.056C126.081 119.79 123.817 124.811 121.68 129.733C120.624 132.216 119.596 134.699 118.613 137.194C117.63 139.688 116.71 142.204 115.907 144.71L115.753 145.164C115.721 145.236 115.7 145.315 115.69 145.397C115.639 145.763 115.618 146.134 115.627 146.505C115.666 147.604 115.793 148.696 116.006 149.765C116.522 152.317 117.185 154.821 117.99 157.258C118.793 159.808 119.713 162.369 120.696 164.941C121.68 167.512 122.681 170.084 123.664 172.59L119.379 176.181C116.182 171.615 113.34 166.69 110.892 161.471C109.591 158.728 108.489 155.849 107.599 152.869C107.105 151.17 106.743 149.418 106.517 147.636C106.396 146.56 106.36 145.473 106.409 144.388C106.445 143.747 106.518 143.11 106.625 142.481C106.679 142.16 106.769 141.794 106.851 141.451L106.995 140.885C108.458 135.108 110.267 129.473 112.407 124.024C114.504 118.621 116.85 113.369 119.434 108.294L128.327 115.056Z" fill="#FFC3BD"/>
<path d="M122.988 170.993L127.02 174.851L120.868 181.103C120.868 181.103 118.063 177.778 118.496 173.687L122.988 170.993Z" fill="#FFC3BD"/>
<path d="M128.661 180.482L124.557 186.967L120.859 181.103L127.02 174.851L128.661 180.482Z" fill="#FFC3BD"/>
<path d="M151.536 68.8518C151.653 69.5169 152.032 69.9604 152.384 69.9604C152.736 69.9604 152.943 69.2509 152.835 68.5858C152.727 67.9206 152.339 67.4772 151.987 67.5326C151.635 67.5881 151.464 68.1756 151.536 68.8518Z" fill="#2C3234"/>
<path d="M152.014 70.0047C153.007 71.8926 154.206 73.6046 155.577 75.0929C155.257 75.5143 154.866 75.8448 154.431 76.0612C153.997 76.2775 153.529 76.3746 153.06 76.3456L152.014 70.0047Z" fill="#ED847E"/>
<path d="M148.956 65.6259C148.876 65.6224 148.799 65.583 148.74 65.5151C148.708 65.4788 148.683 65.435 148.666 65.3864C148.649 65.3378 148.64 65.2854 148.64 65.2324C148.64 65.1794 148.649 65.127 148.666 65.0784C148.683 65.0298 148.708 64.986 148.74 64.9497C149.08 64.4669 149.511 64.0934 149.995 63.8616C150.479 63.6298 151.002 63.5467 151.518 63.6195C151.56 63.6282 151.6 63.647 151.636 63.6749C151.673 63.7027 151.704 63.739 151.729 63.7818C151.753 63.8245 151.771 63.8728 151.78 63.9239C151.79 63.9749 151.791 64.0278 151.784 64.0795C151.777 64.1312 151.762 64.1807 151.739 64.2251C151.716 64.2695 151.687 64.3079 151.652 64.3383C151.617 64.3687 151.578 64.3903 151.536 64.402C151.495 64.4137 151.452 64.4153 151.41 64.4065C150.999 64.3625 150.585 64.4402 150.204 64.6331C149.823 64.826 149.485 65.1284 149.218 65.5151C149.184 65.5561 149.142 65.5873 149.097 65.6065C149.052 65.6256 149.004 65.6323 148.956 65.6259Z" fill="#2C3234"/>
<path d="M136.013 78.2855C137.005 84.5045 137.997 95.8893 134.461 100.035C134.461 100.035 135.841 106.332 145.231 106.332C155.559 106.332 150.174 100.035 150.174 100.035C144.537 98.3724 144.681 93.2398 145.664 88.4066L136.013 78.2855Z" fill="#FFC3BD"/>
<path d="M132.459 100.501C131.71 98.2837 133.361 91.6324 135.029 91.0006C136.914 90.2911 144.049 90.6902 147.657 92.5193C150.192 95.6676 150.923 102.197 150.923 102.197L132.459 100.501Z" fill="#2C3234"/>
<path d="M102.963 390.785C103.241 390.907 103.535 390.96 103.829 390.941C104.123 390.922 104.412 390.831 104.677 390.674C104.782 390.561 104.854 390.409 104.884 390.241C104.913 390.074 104.897 389.899 104.839 389.743C104.808 389.611 104.754 389.49 104.68 389.387C104.607 389.283 104.517 389.201 104.415 389.144C103.513 388.601 101.34 389.676 101.249 389.721C101.22 389.734 101.195 389.758 101.177 389.79C101.159 389.822 101.15 389.859 101.15 389.898C101.15 389.936 101.158 389.974 101.174 390.008C101.19 390.041 101.213 390.068 101.24 390.086C101.792 390.398 102.369 390.632 102.963 390.785ZM104.082 389.432L104.28 389.51C104.339 389.542 104.391 389.59 104.433 389.649C104.475 389.708 104.506 389.778 104.524 389.854C104.614 390.219 104.524 390.33 104.47 390.364C104.1 390.752 102.72 390.363 101.764 389.92C102.497 389.546 103.289 389.38 104.082 389.432Z" fill="#7C5BDB"/>
<path d="M101.276 390.109H101.358C102.142 389.831 103.811 388.368 103.829 387.404C103.832 387.254 103.792 387.108 103.716 386.99C103.64 386.873 103.533 386.792 103.414 386.761C103.295 386.708 103.169 386.687 103.043 386.699C102.917 386.71 102.795 386.754 102.683 386.827C101.781 387.404 101.177 389.765 101.159 389.865C101.144 389.895 101.136 389.929 101.136 389.964C101.136 390 101.144 390.034 101.159 390.064L101.276 390.109ZM103.234 387.104H103.306C103.504 387.193 103.504 387.315 103.504 387.359C103.504 387.936 102.386 389.078 101.583 389.576C101.796 388.642 102.233 387.807 102.837 387.182C102.958 387.102 103.098 387.075 103.234 387.104Z" fill="#7C5BDB"/>
<path d="M152.835 392.215C153.737 392.215 154.585 392.06 154.864 391.572C154.94 391.445 154.981 391.291 154.981 391.134C154.981 390.977 154.94 390.823 154.864 390.696C154.808 390.578 154.733 390.476 154.643 390.396C154.552 390.316 154.45 390.259 154.341 390.23C153.196 389.842 150.778 391.527 150.679 391.605C150.649 391.625 150.625 391.656 150.611 391.694C150.596 391.732 150.592 391.775 150.598 391.816C150.603 391.855 150.618 391.89 150.641 391.918C150.663 391.946 150.693 391.964 150.724 391.971C151.42 392.129 152.127 392.211 152.835 392.215ZM153.935 390.563C154.042 390.564 154.148 390.582 154.251 390.618C154.317 390.632 154.38 390.664 154.435 390.712C154.49 390.76 154.535 390.823 154.567 390.896C154.684 391.139 154.648 391.272 154.567 391.339C154.242 391.893 152.501 391.904 151.211 391.683C152.05 391.092 152.976 390.711 153.935 390.563Z" fill="#7C5BDB"/>
<path d="M150.751 391.982H150.814C151.653 391.527 153.304 389.687 153.178 388.723C153.178 388.501 153.015 388.224 152.564 388.169C152.403 388.145 152.239 388.163 152.083 388.222C151.928 388.281 151.785 388.38 151.662 388.512C150.76 389.399 150.598 391.683 150.589 391.782C150.584 391.816 150.588 391.851 150.599 391.883C150.61 391.914 150.629 391.941 150.652 391.96C150.682 391.983 150.717 391.991 150.751 391.982ZM152.438 388.534H152.537C152.826 388.534 152.844 388.712 152.853 388.756C152.934 389.333 151.807 390.774 150.959 391.406C151.033 390.44 151.348 389.527 151.861 388.789C152.023 388.624 152.227 388.534 152.438 388.534Z" fill="#7C5BDB"/>
<path d="M143.156 391.782H150.066L150.751 372.117H143.842L143.156 391.782Z" fill="#FFC3BD"/>
<path d="M93.2941 387.847L100.23 389.643L105.128 371.33L98.1829 369.534L93.2941 387.847Z" fill="#FFC3BD"/>
<path d="M101.024 388.812L93.4381 386.794C93.3042 386.758 93.1643 386.779 93.0414 386.853C92.9184 386.928 92.8198 387.052 92.7616 387.204L90.1277 394.232C90.0652 394.404 90.0349 394.591 90.0391 394.779C90.0433 394.967 90.082 395.151 90.1521 395.319C90.2223 395.486 90.3223 395.631 90.4445 395.745C90.5668 395.858 90.7082 395.936 90.8584 395.973C93.5193 396.616 94.8362 396.771 98.1736 397.658C100.221 398.201 104.857 399.587 107.69 400.34C110.522 401.094 111.505 397.746 110.396 397.126C105.444 394.343 103.369 391.893 102.034 389.61C101.788 389.201 101.429 388.917 101.024 388.812Z" fill="#2C3234"/>
<path d="M150.021 390.796H142.516C142.38 390.797 142.248 390.854 142.141 390.959C142.035 391.063 141.96 391.209 141.93 391.372L140.568 398.921C140.532 399.104 140.53 399.294 140.564 399.477C140.597 399.66 140.664 399.831 140.76 399.977C140.856 400.123 140.979 400.24 141.117 400.318C141.256 400.396 141.407 400.434 141.56 400.429C144.266 400.374 148.217 400.185 151.635 400.185C155.631 400.185 154.08 400.451 158.77 400.451C161.612 400.451 162.378 396.926 161.206 396.605C155.794 395.152 156.398 394.997 151.726 391.461C151.221 391.042 150.629 390.811 150.021 390.796Z" fill="#2C3234"/>
<path d="M122.086 101.986C115.609 103.804 110.278 124.157 110.278 124.157L123.276 136.351C126.643 131.941 129.021 126.532 130.177 120.654C132.405 109.935 128.706 100.08 122.086 101.986Z" fill="#2C3234"/>
<path opacity="0.2" d="M127.642 116.896C124.124 121.164 122.979 128.957 122.699 135.741L123.276 136.285C126.647 131.878 129.025 126.468 130.177 120.588C130.312 119.956 130.42 119.313 130.519 118.692L127.642 116.896Z" fill="black"/>
<path d="M160.799 102.385C160.799 102.385 168.151 112.595 161.205 175.782H124.223C123.971 168.809 127.534 134.766 122.059 101.953C126.146 100.986 130.279 100.345 134.434 100.035C139.667 99.658 144.914 99.658 150.147 100.035C153.742 100.477 157.304 101.262 160.799 102.385Z" fill="#2C3234"/>
<path opacity="0.2" d="M150.751 372.117L150.4 382.26H143.481L143.833 372.117H150.751Z" fill="black"/>
<path opacity="0.2" d="M98.1828 369.534L105.128 371.33L102.594 380.775L95.6572 378.979L98.1828 369.534Z" fill="black"/>
<path d="M133.126 71.9779C134.93 80.1146 135.598 84.9922 139.684 88.3733C145.835 93.4726 153.493 87.6306 153.728 78.995C153.944 71.2352 151.022 59.2296 143.896 57.589C142.331 57.2167 140.714 57.343 139.199 57.9556C137.685 58.5683 136.323 59.6471 135.243 61.0893C134.164 62.5315 133.403 64.2892 133.032 66.1951C132.661 68.101 132.694 70.0917 133.126 71.9779Z" fill="#FFC3BD"/>
<path d="M139.729 87.431H139.639C138.571 87.4383 137.517 87.1323 136.565 86.5385C135.612 85.9447 134.789 85.0801 134.163 84.0167C132.089 80.4583 129.175 74.2837 128.842 67.1557C131.476 63.7414 141.37 61.4911 145.781 62.7215C149.452 63.7525 148.92 76.6005 145.447 83.5511C144.84 84.7407 143.997 85.721 142.996 86.3997C141.996 87.0785 140.872 87.4333 139.729 87.431Z" fill="#FFC3BD"/>
<path opacity="0.8" d="M139.729 87.431H139.639C138.571 87.4383 137.517 87.1323 136.565 86.5385C135.612 85.9447 134.789 85.0801 134.163 84.0167C132.089 80.4583 129.175 74.2837 128.842 67.1557C131.476 63.7414 141.37 61.4911 145.781 62.7215C149.452 63.7525 148.92 76.6005 145.447 83.5511C144.84 84.7407 143.997 85.721 142.996 86.3997C141.996 87.0785 140.872 87.4333 139.729 87.431Z" fill="#2C3234"/>
<path d="M132.856 70.049C131.673 70.0088 130.527 69.5373 129.564 68.6944C128.6 67.8515 127.862 66.6753 127.444 65.3155C126.659 62.4333 127.489 56.3474 132.206 56.17C136.924 55.9927 137.411 52.6892 135.959 52.013C139.043 52.2901 138.069 54.9396 138.069 54.9396C138.89 54.9396 139.666 52.2236 144.383 52.4453C149.101 52.667 151.401 51.4255 150.796 50.1285C153.024 50.6827 152.402 54.0084 150.517 54.9063C150.517 54.9063 154.982 59.0634 156.037 56.7797C156.786 58.4426 155.306 60.4379 149.669 59.5289C151.915 63.3978 146.593 62.5331 144.329 64.2846C142.065 66.0361 135.968 70.3262 132.856 70.049Z" fill="#2C3234"/>
<path d="M144.392 71.601C144.847 73.6179 145.826 75.3969 147.18 76.6671C148.984 78.3077 150.318 76.6671 150.192 74.1839C150.084 71.9668 149.002 68.364 147.026 67.6989C145.051 67.0338 143.878 69.1511 144.392 71.601Z" fill="#FFC3BD"/>
<path d="M148.099 175.782C148.099 175.782 140.252 240.676 135.949 264.987C131.241 291.592 105.958 379.688 105.958 379.688L93.5916 376.363C93.5916 376.363 111.271 304.573 115.24 267.359C118.279 238.77 124.26 175.738 124.26 175.738L148.099 175.782Z" fill="#2C3234"/>
<path d="M108.926 374.622L106.616 380.165L92.6986 376.462L93.8712 371.319L108.926 374.622Z" fill="#7C5BDB"/>
<path opacity="0.3" d="M143.138 198.906C134.073 201.124 135.02 242.639 136.13 264.011C138.736 248.902 142.57 219.836 145.15 199.206C144.525 198.834 143.817 198.729 143.138 198.906Z" fill="black"/>
<path d="M161.206 175.782C161.206 175.782 162.162 239.269 161.404 265.164C160.628 292.102 152.97 380.298 152.97 380.298H141.244C141.244 380.298 140.82 293.676 140.297 267.226C139.729 238.404 136.897 175.782 136.897 175.782H161.206Z" fill="#2C3234"/>
<path d="M155.225 374.567C155.279 374.567 154.558 380.531 154.558 380.531H140.324L139.936 375.21L155.225 374.567Z" fill="#7C5BDB"/>
<path d="M160.971 101.266C162.775 102.186 164.516 103.838 165.039 109.325C165.544 114.59 164.57 160.739 163.397 175.472C163.381 175.977 163.218 176.459 162.939 176.831C162.66 177.203 162.282 177.44 161.873 177.5C154.485 177.888 131.602 174.097 123.881 175.76C122.979 175.96 122.194 174.74 122.248 173.632C122.852 159.276 121.977 136.107 120.552 121.397C119.65 111.786 119.65 101.731 126.172 100.024C131.024 98.7604 153.917 97.6518 160.971 101.266Z" fill="#7C5BDB"/>
<path d="M163.83 114.014C164.245 116.453 164.732 119.102 165.183 121.63C165.634 124.157 166.194 126.718 166.771 129.212C167.348 131.706 167.943 134.156 168.629 136.495C169.245 138.714 170.017 140.861 170.938 142.914C171.274 143.702 171.676 144.445 172.138 145.131C172.309 145.364 172.444 145.519 172.48 145.563C172.517 145.608 172.48 145.663 172.652 145.73C173.233 145.966 173.845 146.064 174.456 146.018C175.363 145.969 176.267 145.851 177.162 145.663C181.235 144.609 185.234 143.163 189.122 141.34L191.747 146.882C188.019 150.561 183.843 153.494 179.372 155.573C178.124 156.137 176.838 156.563 175.529 156.848C173.946 157.216 172.322 157.246 170.731 156.937C169.707 156.724 168.718 156.312 167.799 155.718C166.971 155.149 166.202 154.461 165.508 153.667C164.408 152.404 163.435 150.982 162.613 149.432C160.065 144.285 158.09 138.74 156.741 132.948C156.064 130.21 155.442 127.472 154.937 124.711C154.431 121.951 153.926 119.269 153.538 116.331L163.83 114.014Z" fill="#FFC3BD"/>
<path d="M148.632 110.688C143.021 124.556 156.353 140.231 156.353 140.231L171.218 130.698C170.18 123.348 168.477 116.165 166.139 109.281C161.81 97.4412 151.861 102.718 148.632 110.688Z" fill="#2C3234"/>
<path d="M187.742 142.116L192.784 138.036L194.877 147.304C194.877 147.304 192.622 150.552 188.491 147.015L187.742 142.116Z" fill="#FFC3BD"/>
<path d="M197.177 141.783L197.015 143.734C196.933 144.67 196.566 145.534 195.987 146.151L194.877 147.259L192.785 137.992L193.425 137.792C193.898 137.641 194.393 137.634 194.868 137.77C195.344 137.907 195.785 138.183 196.154 138.576C196.524 138.969 196.81 139.466 196.988 140.024C197.166 140.583 197.231 141.187 197.177 141.783Z" fill="#FFC3BD"/>
</svg>
